<?xml version="1.0" encoding="utf-8" standalone="no"?>
<!DOCTYPE svg PUBLIC "-//W3C//DTD SVG 1.1//EN"
  "http://www.w3.org/Graphics/SVG/1.1/DTD/svg11.dtd">
<svg xmlns:xlink="http://www.w3.org/1999/xlink" width="864pt" height="576pt" viewBox="0 0 864 576" xmlns="http://www.w3.org/2000/svg" version="1.1">
 <metadata>
  <rdf:RDF xmlns:dc="http://purl.org/dc/elements/1.1/" xmlns:cc="http://creativecommons.org/ns#" xmlns:rdf="http://www.w3.org/1999/02/22-rdf-syntax-ns#">
   <cc:Work>
    <dc:type rdf:resource="http://purl.org/dc/dcmitype/StillImage"/>
    <dc:date>2023-07-29T19:34:18.678807</dc:date>
    <dc:format>image/svg+xml</dc:format>
    <dc:creator>
     <cc:Agent>
      <dc:title>Matplotlib v3.5.1, https://matplotlib.org/</dc:title>
     </cc:Agent>
    </dc:creator>
   </cc:Work>
  </rdf:RDF>
 </metadata>
 <defs>
  <style type="text/css">*{stroke-linejoin: round; stroke-linecap: butt}</style>
 </defs>
 <g id="figure_1">
  <g id="patch_1">
   <path d="M 0 576 
L 864 576 
L 864 0 
L 0 0 
L 0 576 
z
" style="fill: none"/>
  </g>
  <g id="axes_1">
   <g id="patch_2">
    <path d="M 108 504 
L 777.6 504 
L 777.6 69.12 
L 108 69.12 
z
" style="fill: #ffffff"/>
   </g>
   <g id="patch_3">
    <path d="M 138.436364 504 
L 142.240909 504 
L 142.240909 504 
L 138.436364 504 
z
" clip-path="url(#p8117a4ea04)" style="fill: #add8e6"/>
   </g>
   <g id="patch_4">
    <path d="M 142.240909 504 
L 146.045455 504 
L 146.045455 504 
L 142.240909 504 
z
" clip-path="url(#p8117a4ea04)" style="fill: #add8e6"/>
   </g>
   <g id="patch_5">
    <path d="M 146.045455 504 
L 149.85 504 
L 149.85 504 
L 146.045455 504 
z
" clip-path="url(#p8117a4ea04)" style="fill: #add8e6"/>
   </g>
   <g id="patch_6">
    <path d="M 149.85 504 
L 153.654545 504 
L 153.654545 504 
L 149.85 504 
z
" clip-path="url(#p8117a4ea04)" style="fill: #add8e6"/>
   </g>
   <g id="patch_7">
    <path d="M 153.654545 504 
L 157.459091 504 
L 157.459091 504 
L 153.654545 504 
z
" clip-path="url(#p8117a4ea04)" style="fill: #add8e6"/>
   </g>
   <g id="patch_8">
    <path d="M 157.459091 504 
L 161.263636 504 
L 161.263636 504 
L 157.459091 504 
z
" clip-path="url(#p8117a4ea04)" style="fill: #add8e6"/>
   </g>
   <g id="patch_9">
    <path d="M 161.263636 504 
L 165.068182 504 
L 165.068182 502.445886 
L 161.263636 502.445886 
z
" clip-path="url(#p8117a4ea04)" style="fill: #add8e6"/>
   </g>
   <g id="patch_10">
    <path d="M 165.068182 504 
L 168.872727 504 
L 168.872727 504 
L 165.068182 504 
z
" clip-path="url(#p8117a4ea04)" style="fill: #add8e6"/>
   </g>
   <g id="patch_11">
    <path d="M 168.872727 504 
L 172.677273 504 
L 172.677273 504 
L 168.872727 504 
z
" clip-path="url(#p8117a4ea04)" style="fill: #add8e6"/>
   </g>
   <g id="patch_12">
    <path d="M 172.677273 504 
L 176.481818 504 
L 176.481818 504 
L 172.677273 504 
z
" clip-path="url(#p8117a4ea04)" style="fill: #add8e6"/>
   </g>
   <g id="patch_13">
    <path d="M 176.481818 504 
L 180.286364 504 
L 180.286364 504 
L 176.481818 504 
z
" clip-path="url(#p8117a4ea04)" style="fill: #add8e6"/>
   </g>
   <g id="patch_14">
    <path d="M 180.286364 504 
L 184.090909 504 
L 184.090909 504 
L 180.286364 504 
z
" clip-path="url(#p8117a4ea04)" style="fill: #add8e6"/>
   </g>
   <g id="patch_15">
    <path d="M 184.090909 504 
L 187.895455 504 
L 187.895455 504 
L 184.090909 504 
z
" clip-path="url(#p8117a4ea04)" style="fill: #add8e6"/>
   </g>
   <g id="patch_16">
    <path d="M 187.895455 504 
L 191.7 504 
L 191.7 504 
L 187.895455 504 
z
" clip-path="url(#p8117a4ea04)" style="fill: #add8e6"/>
   </g>
   <g id="patch_17">
    <path d="M 191.7 504 
L 195.504545 504 
L 195.504545 504 
L 191.7 504 
z
" clip-path="url(#p8117a4ea04)" style="fill: #add8e6"/>
   </g>
   <g id="patch_18">
    <path d="M 195.504545 504 
L 199.309091 504 
L 199.309091 504 
L 195.504545 504 
z
" clip-path="url(#p8117a4ea04)" style="fill: #add8e6"/>
   </g>
   <g id="patch_19">
    <path d="M 199.309091 504 
L 203.113636 504 
L 203.113636 504 
L 199.309091 504 
z
" clip-path="url(#p8117a4ea04)" style="fill: #add8e6"/>
   </g>
   <g id="patch_20">
    <path d="M 203.113636 504 
L 206.918182 504 
L 206.918182 504 
L 203.113636 504 
z
" clip-path="url(#p8117a4ea04)" style="fill: #add8e6"/>
   </g>
   <g id="patch_21">
    <path d="M 206.918182 504 
L 210.722727 504 
L 210.722727 503.222943 
L 206.918182 503.222943 
z
" clip-path="url(#p8117a4ea04)" style="fill: #add8e6"/>
   </g>
   <g id="patch_22">
    <path d="M 210.722727 504 
L 214.527273 504 
L 214.527273 504 
L 210.722727 504 
z
" clip-path="url(#p8117a4ea04)" style="fill: #add8e6"/>
   </g>
   <g id="patch_23">
    <path d="M 214.527273 504 
L 218.331818 504 
L 218.331818 504 
L 214.527273 504 
z
" clip-path="url(#p8117a4ea04)" style="fill: #add8e6"/>
   </g>
   <g id="patch_24">
    <path d="M 218.331818 504 
L 222.136364 504 
L 222.136364 504 
L 218.331818 504 
z
" clip-path="url(#p8117a4ea04)" style="fill: #add8e6"/>
   </g>
   <g id="patch_25">
    <path d="M 222.136364 504 
L 225.940909 504 
L 225.940909 504 
L 222.136364 504 
z
" clip-path="url(#p8117a4ea04)" style="fill: #add8e6"/>
   </g>
   <g id="patch_26">
    <path d="M 225.940909 504 
L 229.745455 504 
L 229.745455 504 
L 225.940909 504 
z
" clip-path="url(#p8117a4ea04)" style="fill: #add8e6"/>
   </g>
   <g id="patch_27">
    <path d="M 229.745455 504 
L 233.55 504 
L 233.55 504 
L 229.745455 504 
z
" clip-path="url(#p8117a4ea04)" style="fill: #add8e6"/>
   </g>
   <g id="patch_28">
    <path d="M 233.55 504 
L 237.354545 504 
L 237.354545 504 
L 233.55 504 
z
" clip-path="url(#p8117a4ea04)" style="fill: #add8e6"/>
   </g>
   <g id="patch_29">
    <path d="M 237.354545 504 
L 241.159091 504 
L 241.159091 504 
L 237.354545 504 
z
" clip-path="url(#p8117a4ea04)" style="fill: #add8e6"/>
   </g>
   <g id="patch_30">
    <path d="M 241.159091 504 
L 244.963636 504 
L 244.963636 504 
L 241.159091 504 
z
" clip-path="url(#p8117a4ea04)" style="fill: #add8e6"/>
   </g>
   <g id="patch_31">
    <path d="M 244.963636 504 
L 248.768182 504 
L 248.768182 504 
L 244.963636 504 
z
" clip-path="url(#p8117a4ea04)" style="fill: #add8e6"/>
   </g>
   <g id="patch_32">
    <path d="M 248.768182 504 
L 252.572727 504 
L 252.572727 504 
L 248.768182 504 
z
" clip-path="url(#p8117a4ea04)" style="fill: #add8e6"/>
   </g>
   <g id="patch_33">
    <path d="M 252.572727 504 
L 256.377273 504 
L 256.377273 503.222943 
L 252.572727 503.222943 
z
" clip-path="url(#p8117a4ea04)" style="fill: #add8e6"/>
   </g>
   <g id="patch_34">
    <path d="M 256.377273 504 
L 260.181818 504 
L 260.181818 504 
L 256.377273 504 
z
" clip-path="url(#p8117a4ea04)" style="fill: #add8e6"/>
   </g>
   <g id="patch_35">
    <path d="M 260.181818 504 
L 263.986364 504 
L 263.986364 504 
L 260.181818 504 
z
" clip-path="url(#p8117a4ea04)" style="fill: #add8e6"/>
   </g>
   <g id="patch_36">
    <path d="M 263.986364 504 
L 267.790909 504 
L 267.790909 504 
L 263.986364 504 
z
" clip-path="url(#p8117a4ea04)" style="fill: #add8e6"/>
   </g>
   <g id="patch_37">
    <path d="M 267.790909 504 
L 271.595455 504 
L 271.595455 504 
L 267.790909 504 
z
" clip-path="url(#p8117a4ea04)" style="fill: #add8e6"/>
   </g>
   <g id="patch_38">
    <path d="M 271.595455 504 
L 275.4 504 
L 275.4 504 
L 271.595455 504 
z
" clip-path="url(#p8117a4ea04)" style="fill: #add8e6"/>
   </g>
   <g id="patch_39">
    <path d="M 275.4 504 
L 279.204545 504 
L 279.204545 504 
L 275.4 504 
z
" clip-path="url(#p8117a4ea04)" style="fill: #add8e6"/>
   </g>
   <g id="patch_40">
    <path d="M 279.204545 504 
L 283.009091 504 
L 283.009091 504 
L 279.204545 504 
z
" clip-path="url(#p8117a4ea04)" style="fill: #add8e6"/>
   </g>
   <g id="patch_41">
    <path d="M 283.009091 504 
L 286.813636 504 
L 286.813636 504 
L 283.009091 504 
z
" clip-path="url(#p8117a4ea04)" style="fill: #add8e6"/>
   </g>
   <g id="patch_42">
    <path d="M 286.813636 504 
L 290.618182 504 
L 290.618182 504 
L 286.813636 504 
z
" clip-path="url(#p8117a4ea04)" style="fill: #add8e6"/>
   </g>
   <g id="patch_43">
    <path d="M 290.618182 504 
L 294.422727 504 
L 294.422727 504 
L 290.618182 504 
z
" clip-path="url(#p8117a4ea04)" style="fill: #add8e6"/>
   </g>
   <g id="patch_44">
    <path d="M 294.422727 504 
L 298.227273 504 
L 298.227273 504 
L 294.422727 504 
z
" clip-path="url(#p8117a4ea04)" style="fill: #add8e6"/>
   </g>
   <g id="patch_45">
    <path d="M 298.227273 504 
L 302.031818 504 
L 302.031818 504 
L 298.227273 504 
z
" clip-path="url(#p8117a4ea04)" style="fill: #add8e6"/>
   </g>
   <g id="patch_46">
    <path d="M 302.031818 504 
L 305.836364 504 
L 305.836364 503.222943 
L 302.031818 503.222943 
z
" clip-path="url(#p8117a4ea04)" style="fill: #add8e6"/>
   </g>
   <g id="patch_47">
    <path d="M 305.836364 504 
L 309.640909 504 
L 309.640909 504 
L 305.836364 504 
z
" clip-path="url(#p8117a4ea04)" style="fill: #add8e6"/>
   </g>
   <g id="patch_48">
    <path d="M 309.640909 504 
L 313.445455 504 
L 313.445455 503.222943 
L 309.640909 503.222943 
z
" clip-path="url(#p8117a4ea04)" style="fill: #add8e6"/>
   </g>
   <g id="patch_49">
    <path d="M 313.445455 504 
L 317.25 504 
L 317.25 504 
L 313.445455 504 
z
" clip-path="url(#p8117a4ea04)" style="fill: #add8e6"/>
   </g>
   <g id="patch_50">
    <path d="M 317.25 504 
L 321.054545 504 
L 321.054545 502.445886 
L 317.25 502.445886 
z
" clip-path="url(#p8117a4ea04)" style="fill: #add8e6"/>
   </g>
   <g id="patch_51">
    <path d="M 321.054545 504 
L 324.859091 504 
L 324.859091 504 
L 321.054545 504 
z
" clip-path="url(#p8117a4ea04)" style="fill: #add8e6"/>
   </g>
   <g id="patch_52">
    <path d="M 324.859091 504 
L 328.663636 504 
L 328.663636 503.222943 
L 324.859091 503.222943 
z
" clip-path="url(#p8117a4ea04)" style="fill: #add8e6"/>
   </g>
   <g id="patch_53">
    <path d="M 328.663636 504 
L 332.468182 504 
L 332.468182 504 
L 328.663636 504 
z
" clip-path="url(#p8117a4ea04)" style="fill: #add8e6"/>
   </g>
   <g id="patch_54">
    <path d="M 332.468182 504 
L 336.272727 504 
L 336.272727 503.222943 
L 332.468182 503.222943 
z
" clip-path="url(#p8117a4ea04)" style="fill: #add8e6"/>
   </g>
   <g id="patch_55">
    <path d="M 336.272727 504 
L 340.077273 504 
L 340.077273 503.222943 
L 336.272727 503.222943 
z
" clip-path="url(#p8117a4ea04)" style="fill: #add8e6"/>
   </g>
   <g id="patch_56">
    <path d="M 340.077273 504 
L 343.881818 504 
L 343.881818 504 
L 340.077273 504 
z
" clip-path="url(#p8117a4ea04)" style="fill: #add8e6"/>
   </g>
   <g id="patch_57">
    <path d="M 343.881818 504 
L 347.686364 504 
L 347.686364 494.675315 
L 343.881818 494.675315 
z
" clip-path="url(#p8117a4ea04)" style="fill: #add8e6"/>
   </g>
   <g id="patch_58">
    <path d="M 347.686364 504 
L 351.490909 504 
L 351.490909 500.891772 
L 347.686364 500.891772 
z
" clip-path="url(#p8117a4ea04)" style="fill: #add8e6"/>
   </g>
   <g id="patch_59">
    <path d="M 351.490909 504 
L 355.295455 504 
L 355.295455 503.222943 
L 351.490909 503.222943 
z
" clip-path="url(#p8117a4ea04)" style="fill: #add8e6"/>
   </g>
   <g id="patch_60">
    <path d="M 355.295455 504 
L 359.1 504 
L 359.1 504 
L 355.295455 504 
z
" clip-path="url(#p8117a4ea04)" style="fill: #add8e6"/>
   </g>
   <g id="patch_61">
    <path d="M 359.1 504 
L 362.904545 504 
L 362.904545 503.222943 
L 359.1 503.222943 
z
" clip-path="url(#p8117a4ea04)" style="fill: #add8e6"/>
   </g>
   <g id="patch_62">
    <path d="M 362.904545 504 
L 366.709091 504 
L 366.709091 503.222943 
L 362.904545 503.222943 
z
" clip-path="url(#p8117a4ea04)" style="fill: #add8e6"/>
   </g>
   <g id="patch_63">
    <path d="M 366.709091 504 
L 370.513636 504 
L 370.513636 497.783543 
L 366.709091 497.783543 
z
" clip-path="url(#p8117a4ea04)" style="fill: #add8e6"/>
   </g>
   <g id="patch_64">
    <path d="M 370.513636 504 
L 374.318182 504 
L 374.318182 504 
L 370.513636 504 
z
" clip-path="url(#p8117a4ea04)" style="fill: #add8e6"/>
   </g>
   <g id="patch_65">
    <path d="M 374.318182 504 
L 378.122727 504 
L 378.122727 504 
L 374.318182 504 
z
" clip-path="url(#p8117a4ea04)" style="fill: #add8e6"/>
   </g>
   <g id="patch_66">
    <path d="M 378.122727 504 
L 381.927273 504 
L 381.927273 504 
L 378.122727 504 
z
" clip-path="url(#p8117a4ea04)" style="fill: #add8e6"/>
   </g>
   <g id="patch_67">
    <path d="M 381.927273 504 
L 385.731818 504 
L 385.731818 503.222943 
L 381.927273 503.222943 
z
" clip-path="url(#p8117a4ea04)" style="fill: #add8e6"/>
   </g>
   <g id="patch_68">
    <path d="M 385.731818 504 
L 389.536364 504 
L 389.536364 502.445886 
L 385.731818 502.445886 
z
" clip-path="url(#p8117a4ea04)" style="fill: #add8e6"/>
   </g>
   <g id="patch_69">
    <path d="M 389.536364 504 
L 393.340909 504 
L 393.340909 501.668829 
L 389.536364 501.668829 
z
" clip-path="url(#p8117a4ea04)" style="fill: #add8e6"/>
   </g>
   <g id="patch_70">
    <path d="M 393.340909 504 
L 397.145455 504 
L 397.145455 502.445886 
L 393.340909 502.445886 
z
" clip-path="url(#p8117a4ea04)" style="fill: #add8e6"/>
   </g>
   <g id="patch_71">
    <path d="M 397.145455 504 
L 400.95 504 
L 400.95 501.668829 
L 397.145455 501.668829 
z
" clip-path="url(#p8117a4ea04)" style="fill: #add8e6"/>
   </g>
   <g id="patch_72">
    <path d="M 400.95 504 
L 404.754545 504 
L 404.754545 501.668829 
L 400.95 501.668829 
z
" clip-path="url(#p8117a4ea04)" style="fill: #add8e6"/>
   </g>
   <g id="patch_73">
    <path d="M 404.754545 504 
L 408.559091 504 
L 408.559091 502.445886 
L 404.754545 502.445886 
z
" clip-path="url(#p8117a4ea04)" style="fill: #add8e6"/>
   </g>
   <g id="patch_74">
    <path d="M 408.559091 504 
L 412.363636 504 
L 412.363636 500.891772 
L 408.559091 500.891772 
z
" clip-path="url(#p8117a4ea04)" style="fill: #add8e6"/>
   </g>
   <g id="patch_75">
    <path d="M 412.363636 504 
L 416.168182 504 
L 416.168182 500.114715 
L 412.363636 500.114715 
z
" clip-path="url(#p8117a4ea04)" style="fill: #add8e6"/>
   </g>
   <g id="patch_76">
    <path d="M 416.168182 504 
L 419.972727 504 
L 419.972727 504 
L 416.168182 504 
z
" clip-path="url(#p8117a4ea04)" style="fill: #add8e6"/>
   </g>
   <g id="patch_77">
    <path d="M 419.972727 504 
L 423.777273 504 
L 423.777273 496.229429 
L 419.972727 496.229429 
z
" clip-path="url(#p8117a4ea04)" style="fill: #add8e6"/>
   </g>
   <g id="patch_78">
    <path d="M 423.777273 504 
L 427.581818 504 
L 427.581818 502.445886 
L 423.777273 502.445886 
z
" clip-path="url(#p8117a4ea04)" style="fill: #add8e6"/>
   </g>
   <g id="patch_79">
    <path d="M 427.581818 504 
L 431.386364 504 
L 431.386364 502.445886 
L 427.581818 502.445886 
z
" clip-path="url(#p8117a4ea04)" style="fill: #add8e6"/>
   </g>
   <g id="patch_80">
    <path d="M 431.386364 504 
L 435.190909 504 
L 435.190909 499.337657 
L 431.386364 499.337657 
z
" clip-path="url(#p8117a4ea04)" style="fill: #add8e6"/>
   </g>
   <g id="patch_81">
    <path d="M 435.190909 504 
L 438.995455 504 
L 438.995455 497.006486 
L 435.190909 497.006486 
z
" clip-path="url(#p8117a4ea04)" style="fill: #add8e6"/>
   </g>
   <g id="patch_82">
    <path d="M 438.995455 504 
L 442.8 504 
L 442.8 490.012972 
L 438.995455 490.012972 
z
" clip-path="url(#p8117a4ea04)" style="fill: #add8e6"/>
   </g>
   <g id="patch_83">
    <path d="M 442.8 504 
L 446.604545 504 
L 446.604545 501.668829 
L 442.8 501.668829 
z
" clip-path="url(#p8117a4ea04)" style="fill: #add8e6"/>
   </g>
   <g id="patch_84">
    <path d="M 446.604545 504 
L 450.409091 504 
L 450.409091 500.114715 
L 446.604545 500.114715 
z
" clip-path="url(#p8117a4ea04)" style="fill: #add8e6"/>
   </g>
   <g id="patch_85">
    <path d="M 450.409091 504 
L 454.213636 504 
L 454.213636 498.5606 
L 450.409091 498.5606 
z
" clip-path="url(#p8117a4ea04)" style="fill: #add8e6"/>
   </g>
   <g id="patch_86">
    <path d="M 454.213636 504 
L 458.018182 504 
L 458.018182 494.675315 
L 454.213636 494.675315 
z
" clip-path="url(#p8117a4ea04)" style="fill: #add8e6"/>
   </g>
   <g id="patch_87">
    <path d="M 458.018182 504 
L 461.822727 504 
L 461.822727 494.675315 
L 458.018182 494.675315 
z
" clip-path="url(#p8117a4ea04)" style="fill: #add8e6"/>
   </g>
   <g id="patch_88">
    <path d="M 461.822727 504 
L 465.627273 504 
L 465.627273 496.229429 
L 461.822727 496.229429 
z
" clip-path="url(#p8117a4ea04)" style="fill: #add8e6"/>
   </g>
   <g id="patch_89">
    <path d="M 465.627273 504 
L 469.431818 504 
L 469.431818 496.229429 
L 465.627273 496.229429 
z
" clip-path="url(#p8117a4ea04)" style="fill: #add8e6"/>
   </g>
   <g id="patch_90">
    <path d="M 469.431818 504 
L 473.236364 504 
L 473.236364 497.783543 
L 469.431818 497.783543 
z
" clip-path="url(#p8117a4ea04)" style="fill: #add8e6"/>
   </g>
   <g id="patch_91">
    <path d="M 473.236364 504 
L 477.040909 504 
L 477.040909 491.567087 
L 473.236364 491.567087 
z
" clip-path="url(#p8117a4ea04)" style="fill: #add8e6"/>
   </g>
   <g id="patch_92">
    <path d="M 477.040909 504 
L 480.845455 504 
L 480.845455 490.790029 
L 477.040909 490.790029 
z
" clip-path="url(#p8117a4ea04)" style="fill: #add8e6"/>
   </g>
   <g id="patch_93">
    <path d="M 480.845455 504 
L 484.65 504 
L 484.65 480.688287 
L 480.845455 480.688287 
z
" clip-path="url(#p8117a4ea04)" style="fill: #add8e6"/>
   </g>
   <g id="patch_94">
    <path d="M 484.65 504 
L 488.454545 504 
L 488.454545 493.121201 
L 484.65 493.121201 
z
" clip-path="url(#p8117a4ea04)" style="fill: #add8e6"/>
   </g>
   <g id="patch_95">
    <path d="M 488.454545 504 
L 492.259091 504 
L 492.259091 489.235915 
L 488.454545 489.235915 
z
" clip-path="url(#p8117a4ea04)" style="fill: #add8e6"/>
   </g>
   <g id="patch_96">
    <path d="M 492.259091 504 
L 496.063636 504 
L 496.063636 476.025945 
L 492.259091 476.025945 
z
" clip-path="url(#p8117a4ea04)" style="fill: #add8e6"/>
   </g>
   <g id="patch_97">
    <path d="M 496.063636 504 
L 499.868182 504 
L 499.868182 492.344144 
L 496.063636 492.344144 
z
" clip-path="url(#p8117a4ea04)" style="fill: #add8e6"/>
   </g>
   <g id="patch_98">
    <path d="M 499.868182 504 
L 503.672727 504 
L 503.672727 475.248888 
L 499.868182 475.248888 
z
" clip-path="url(#p8117a4ea04)" style="fill: #add8e6"/>
   </g>
   <g id="patch_99">
    <path d="M 503.672727 504 
L 507.477273 504 
L 507.477273 482.242402 
L 503.672727 482.242402 
z
" clip-path="url(#p8117a4ea04)" style="fill: #add8e6"/>
   </g>
   <g id="patch_100">
    <path d="M 507.477273 504 
L 511.281818 504 
L 511.281818 470.586545 
L 507.477273 470.586545 
z
" clip-path="url(#p8117a4ea04)" style="fill: #add8e6"/>
   </g>
   <g id="patch_101">
    <path d="M 511.281818 504 
L 515.086364 504 
L 515.086364 473.694774 
L 511.281818 473.694774 
z
" clip-path="url(#p8117a4ea04)" style="fill: #add8e6"/>
   </g>
   <g id="patch_102">
    <path d="M 515.086364 504 
L 518.890909 504 
L 518.890909 466.70126 
L 515.086364 466.70126 
z
" clip-path="url(#p8117a4ea04)" style="fill: #add8e6"/>
   </g>
   <g id="patch_103">
    <path d="M 518.890909 504 
L 522.695455 504 
L 522.695455 465.147146 
L 518.890909 465.147146 
z
" clip-path="url(#p8117a4ea04)" style="fill: #add8e6"/>
   </g>
   <g id="patch_104">
    <path d="M 522.695455 504 
L 526.5 504 
L 526.5 455.82246 
L 522.695455 455.82246 
z
" clip-path="url(#p8117a4ea04)" style="fill: #add8e6"/>
   </g>
   <g id="patch_105">
    <path d="M 526.5 504 
L 530.304545 504 
L 530.304545 457.376575 
L 526.5 457.376575 
z
" clip-path="url(#p8117a4ea04)" style="fill: #add8e6"/>
   </g>
   <g id="patch_106">
    <path d="M 530.304545 504 
L 534.109091 504 
L 534.109091 449.606004 
L 530.304545 449.606004 
z
" clip-path="url(#p8117a4ea04)" style="fill: #add8e6"/>
   </g>
   <g id="patch_107">
    <path d="M 534.109091 504 
L 537.913636 504 
L 537.913636 443.389547 
L 534.109091 443.389547 
z
" clip-path="url(#p8117a4ea04)" style="fill: #add8e6"/>
   </g>
   <g id="patch_108">
    <path d="M 537.913636 504 
L 541.718182 504 
L 541.718182 434.064862 
L 537.913636 434.064862 
z
" clip-path="url(#p8117a4ea04)" style="fill: #add8e6"/>
   </g>
   <g id="patch_109">
    <path d="M 541.718182 504 
L 545.522727 504 
L 545.522727 418.52372 
L 541.718182 418.52372 
z
" clip-path="url(#p8117a4ea04)" style="fill: #add8e6"/>
   </g>
   <g id="patch_110">
    <path d="M 545.522727 504 
L 549.327273 504 
L 549.327273 410.753149 
L 545.522727 410.753149 
z
" clip-path="url(#p8117a4ea04)" style="fill: #add8e6"/>
   </g>
   <g id="patch_111">
    <path d="M 549.327273 504 
L 553.131818 504 
L 553.131818 386.66438 
L 549.327273 386.66438 
z
" clip-path="url(#p8117a4ea04)" style="fill: #add8e6"/>
   </g>
   <g id="patch_112">
    <path d="M 553.131818 504 
L 556.936364 504 
L 556.936364 375.008523 
L 553.131818 375.008523 
z
" clip-path="url(#p8117a4ea04)" style="fill: #add8e6"/>
   </g>
   <g id="patch_113">
    <path d="M 556.936364 504 
L 560.740909 504 
L 560.740909 363.352667 
L 556.936364 363.352667 
z
" clip-path="url(#p8117a4ea04)" style="fill: #add8e6"/>
   </g>
   <g id="patch_114">
    <path d="M 560.740909 504 
L 564.545455 504 
L 564.545455 294.971643 
L 560.740909 294.971643 
z
" clip-path="url(#p8117a4ea04)" style="fill: #add8e6"/>
   </g>
   <g id="patch_115">
    <path d="M 564.545455 504 
L 568.35 504 
L 568.35 308.181614 
L 564.545455 308.181614 
z
" clip-path="url(#p8117a4ea04)" style="fill: #add8e6"/>
   </g>
   <g id="patch_116">
    <path d="M 568.35 504 
L 572.154545 504 
L 572.154545 283.315787 
L 568.35 283.315787 
z
" clip-path="url(#p8117a4ea04)" style="fill: #add8e6"/>
   </g>
   <g id="patch_117">
    <path d="M 572.154545 504 
L 575.959091 504 
L 575.959091 229.698847 
L 572.154545 229.698847 
z
" clip-path="url(#p8117a4ea04)" style="fill: #add8e6"/>
   </g>
   <g id="patch_118">
    <path d="M 575.959091 504 
L 579.763636 504 
L 579.763636 166.757223 
L 575.959091 166.757223 
z
" clip-path="url(#p8117a4ea04)" style="fill: #add8e6"/>
   </g>
   <g id="patch_119">
    <path d="M 579.763636 504 
L 583.568182 504 
L 583.568182 165.203109 
L 579.763636 165.203109 
z
" clip-path="url(#p8117a4ea04)" style="fill: #add8e6"/>
   </g>
   <g id="patch_120">
    <path d="M 583.568182 504 
L 587.372727 504 
L 587.372727 89.828571 
L 583.568182 89.828571 
z
" clip-path="url(#p8117a4ea04)" style="fill: #add8e6"/>
   </g>
   <g id="patch_121">
    <path d="M 587.372727 504 
L 591.177273 504 
L 591.177273 102.261485 
L 587.372727 102.261485 
z
" clip-path="url(#p8117a4ea04)" style="fill: #add8e6"/>
   </g>
   <g id="patch_122">
    <path d="M 591.177273 504 
L 594.981818 504 
L 594.981818 158.986652 
L 591.177273 158.986652 
z
" clip-path="url(#p8117a4ea04)" style="fill: #add8e6"/>
   </g>
   <g id="patch_123">
    <path d="M 594.981818 504 
L 598.786364 504 
L 598.786364 189.291879 
L 594.981818 189.291879 
z
" clip-path="url(#p8117a4ea04)" style="fill: #add8e6"/>
   </g>
   <g id="patch_124">
    <path d="M 598.786364 504 
L 602.590909 504 
L 602.590909 301.965157 
L 598.786364 301.965157 
z
" clip-path="url(#p8117a4ea04)" style="fill: #add8e6"/>
   </g>
   <g id="patch_125">
    <path d="M 602.590909 504 
L 606.395455 504 
L 606.395455 382.779094 
L 602.590909 382.779094 
z
" clip-path="url(#p8117a4ea04)" style="fill: #add8e6"/>
   </g>
   <g id="patch_126">
    <path d="M 606.395455 504 
L 610.2 504 
L 610.2 471.363602 
L 606.395455 471.363602 
z
" clip-path="url(#p8117a4ea04)" style="fill: #add8e6"/>
   </g>
   <g id="patch_127">
    <path d="M 610.2 504 
L 614.004545 504 
L 614.004545 500.891772 
L 610.2 500.891772 
z
" clip-path="url(#p8117a4ea04)" style="fill: #add8e6"/>
   </g>
   <g id="patch_128">
    <path d="M 614.004545 504 
L 617.809091 504 
L 617.809091 504 
L 614.004545 504 
z
" clip-path="url(#p8117a4ea04)" style="fill: #add8e6"/>
   </g>
   <g id="patch_129">
    <path d="M 617.809091 504 
L 621.613636 504 
L 621.613636 504 
L 617.809091 504 
z
" clip-path="url(#p8117a4ea04)" style="fill: #add8e6"/>
   </g>
   <g id="patch_130">
    <path d="M 621.613636 504 
L 625.418182 504 
L 625.418182 504 
L 621.613636 504 
z
" clip-path="url(#p8117a4ea04)" style="fill: #add8e6"/>
   </g>
   <g id="patch_131">
    <path d="M 625.418182 504 
L 629.222727 504 
L 629.222727 504 
L 625.418182 504 
z
" clip-path="url(#p8117a4ea04)" style="fill: #add8e6"/>
   </g>
   <g id="patch_132">
    <path d="M 629.222727 504 
L 633.027273 504 
L 633.027273 504 
L 629.222727 504 
z
" clip-path="url(#p8117a4ea04)" style="fill: #add8e6"/>
   </g>
   <g id="patch_133">
    <path d="M 633.027273 504 
L 636.831818 504 
L 636.831818 504 
L 633.027273 504 
z
" clip-path="url(#p8117a4ea04)" style="fill: #add8e6"/>
   </g>
   <g id="patch_134">
    <path d="M 636.831818 504 
L 640.636364 504 
L 640.636364 504 
L 636.831818 504 
z
" clip-path="url(#p8117a4ea04)" style="fill: #add8e6"/>
   </g>
   <g id="patch_135">
    <path d="M 640.636364 504 
L 644.440909 504 
L 644.440909 504 
L 640.636364 504 
z
" clip-path="url(#p8117a4ea04)" style="fill: #add8e6"/>
   </g>
   <g id="patch_136">
    <path d="M 644.440909 504 
L 648.245455 504 
L 648.245455 504 
L 644.440909 504 
z
" clip-path="url(#p8117a4ea04)" style="fill: #add8e6"/>
   </g>
   <g id="patch_137">
    <path d="M 648.245455 504 
L 652.05 504 
L 652.05 504 
L 648.245455 504 
z
" clip-path="url(#p8117a4ea04)" style="fill: #add8e6"/>
   </g>
   <g id="patch_138">
    <path d="M 652.05 504 
L 655.854545 504 
L 655.854545 504 
L 652.05 504 
z
" clip-path="url(#p8117a4ea04)" style="fill: #add8e6"/>
   </g>
   <g id="patch_139">
    <path d="M 655.854545 504 
L 659.659091 504 
L 659.659091 504 
L 655.854545 504 
z
" clip-path="url(#p8117a4ea04)" style="fill: #add8e6"/>
   </g>
   <g id="patch_140">
    <path d="M 659.659091 504 
L 663.463636 504 
L 663.463636 504 
L 659.659091 504 
z
" clip-path="url(#p8117a4ea04)" style="fill: #add8e6"/>
   </g>
   <g id="patch_141">
    <path d="M 663.463636 504 
L 667.268182 504 
L 667.268182 504 
L 663.463636 504 
z
" clip-path="url(#p8117a4ea04)" style="fill: #add8e6"/>
   </g>
   <g id="patch_142">
    <path d="M 667.268182 504 
L 671.072727 504 
L 671.072727 504 
L 667.268182 504 
z
" clip-path="url(#p8117a4ea04)" style="fill: #add8e6"/>
   </g>
   <g id="patch_143">
    <path d="M 671.072727 504 
L 674.877273 504 
L 674.877273 504 
L 671.072727 504 
z
" clip-path="url(#p8117a4ea04)" style="fill: #add8e6"/>
   </g>
   <g id="patch_144">
    <path d="M 674.877273 504 
L 678.681818 504 
L 678.681818 504 
L 674.877273 504 
z
" clip-path="url(#p8117a4ea04)" style="fill: #add8e6"/>
   </g>
   <g id="patch_145">
    <path d="M 678.681818 504 
L 682.486364 504 
L 682.486364 504 
L 678.681818 504 
z
" clip-path="url(#p8117a4ea04)" style="fill: #add8e6"/>
   </g>
   <g id="patch_146">
    <path d="M 682.486364 504 
L 686.290909 504 
L 686.290909 504 
L 682.486364 504 
z
" clip-path="url(#p8117a4ea04)" style="fill: #add8e6"/>
   </g>
   <g id="patch_147">
    <path d="M 686.290909 504 
L 690.095455 504 
L 690.095455 504 
L 686.290909 504 
z
" clip-path="url(#p8117a4ea04)" style="fill: #add8e6"/>
   </g>
   <g id="patch_148">
    <path d="M 690.095455 504 
L 693.9 504 
L 693.9 504 
L 690.095455 504 
z
" clip-path="url(#p8117a4ea04)" style="fill: #add8e6"/>
   </g>
   <g id="patch_149">
    <path d="M 693.9 504 
L 697.704545 504 
L 697.704545 504 
L 693.9 504 
z
" clip-path="url(#p8117a4ea04)" style="fill: #add8e6"/>
   </g>
   <g id="patch_150">
    <path d="M 697.704545 504 
L 701.509091 504 
L 701.509091 504 
L 697.704545 504 
z
" clip-path="url(#p8117a4ea04)" style="fill: #add8e6"/>
   </g>
   <g id="patch_151">
    <path d="M 701.509091 504 
L 705.313636 504 
L 705.313636 504 
L 701.509091 504 
z
" clip-path="url(#p8117a4ea04)" style="fill: #add8e6"/>
   </g>
   <g id="patch_152">
    <path d="M 705.313636 504 
L 709.118182 504 
L 709.118182 504 
L 705.313636 504 
z
" clip-path="url(#p8117a4ea04)" style="fill: #add8e6"/>
   </g>
   <g id="patch_153">
    <path d="M 709.118182 504 
L 712.922727 504 
L 712.922727 504 
L 709.118182 504 
z
" clip-path="url(#p8117a4ea04)" style="fill: #add8e6"/>
   </g>
   <g id="patch_154">
    <path d="M 712.922727 504 
L 716.727273 504 
L 716.727273 504 
L 712.922727 504 
z
" clip-path="url(#p8117a4ea04)" style="fill: #add8e6"/>
   </g>
   <g id="patch_155">
    <path d="M 716.727273 504 
L 720.531818 504 
L 720.531818 504 
L 716.727273 504 
z
" clip-path="url(#p8117a4ea04)" style="fill: #add8e6"/>
   </g>
   <g id="patch_156">
    <path d="M 720.531818 504 
L 724.336364 504 
L 724.336364 504 
L 720.531818 504 
z
" clip-path="url(#p8117a4ea04)" style="fill: #add8e6"/>
   </g>
   <g id="patch_157">
    <path d="M 724.336364 504 
L 728.140909 504 
L 728.140909 504 
L 724.336364 504 
z
" clip-path="url(#p8117a4ea04)" style="fill: #add8e6"/>
   </g>
   <g id="patch_158">
    <path d="M 728.140909 504 
L 731.945455 504 
L 731.945455 504 
L 728.140909 504 
z
" clip-path="url(#p8117a4ea04)" style="fill: #add8e6"/>
   </g>
   <g id="patch_159">
    <path d="M 731.945455 504 
L 735.75 504 
L 735.75 504 
L 731.945455 504 
z
" clip-path="url(#p8117a4ea04)" style="fill: #add8e6"/>
   </g>
   <g id="patch_160">
    <path d="M 735.75 504 
L 739.554545 504 
L 739.554545 504 
L 735.75 504 
z
" clip-path="url(#p8117a4ea04)" style="fill: #add8e6"/>
   </g>
   <g id="patch_161">
    <path d="M 739.554545 504 
L 743.359091 504 
L 743.359091 504 
L 739.554545 504 
z
" clip-path="url(#p8117a4ea04)" style="fill: #add8e6"/>
   </g>
   <g id="patch_162">
    <path d="M 743.359091 504 
L 747.163636 504 
L 747.163636 504 
L 743.359091 504 
z
" clip-path="url(#p8117a4ea04)" style="fill: #add8e6"/>
   </g>
   <g id="matplotlib.axis_1">
    <g id="xtick_1">
     <g id="line2d_1">
      <path d="M 176.481818 504 
L 176.481818 69.12 
" clip-path="url(#p8117a4ea04)" style="fill: none; stroke: #d3d3d3; stroke-width: 0.8; stroke-linecap: square"/>
     </g>
     <g id="line2d_2">
      <defs>
       <path id="m37c9d4b91d" d="M 0 0 
L 0 3.5 
" style="stroke: #000000; stroke-width: 0.8"/>
      </defs>
      <g>
       <use xlink:href="#m37c9d4b91d" x="176.481818" y="504" style="stroke: #000000; stroke-width: 0.8"/>
      </g>
     </g>
     <g id="text_1">
      <!-- 0.86 -->
      <g transform="translate(165.349006 518.598438)scale(0.1 -0.1)">
       <defs>
        <path id="DejaVuSans-30" d="M 2034 4250 
Q 1547 4250 1301 3770 
Q 1056 3291 1056 2328 
Q 1056 1369 1301 889 
Q 1547 409 2034 409 
Q 2525 409 2770 889 
Q 3016 1369 3016 2328 
Q 3016 3291 2770 3770 
Q 2525 4250 2034 4250 
z
M 2034 4750 
Q 2819 4750 3233 4129 
Q 3647 3509 3647 2328 
Q 3647 1150 3233 529 
Q 2819 -91 2034 -91 
Q 1250 -91 836 529 
Q 422 1150 422 2328 
Q 422 3509 836 4129 
Q 1250 4750 2034 4750 
z
" transform="scale(0.015625)"/>
        <path id="DejaVuSans-2e" d="M 684 794 
L 1344 794 
L 1344 0 
L 684 0 
L 684 794 
z
" transform="scale(0.015625)"/>
        <path id="DejaVuSans-38" d="M 2034 2216 
Q 1584 2216 1326 1975 
Q 1069 1734 1069 1313 
Q 1069 891 1326 650 
Q 1584 409 2034 409 
Q 2484 409 2743 651 
Q 3003 894 3003 1313 
Q 3003 1734 2745 1975 
Q 2488 2216 2034 2216 
z
M 1403 2484 
Q 997 2584 770 2862 
Q 544 3141 544 3541 
Q 544 4100 942 4425 
Q 1341 4750 2034 4750 
Q 2731 4750 3128 4425 
Q 3525 4100 3525 3541 
Q 3525 3141 3298 2862 
Q 3072 2584 2669 2484 
Q 3125 2378 3379 2068 
Q 3634 1759 3634 1313 
Q 3634 634 3220 271 
Q 2806 -91 2034 -91 
Q 1263 -91 848 271 
Q 434 634 434 1313 
Q 434 1759 690 2068 
Q 947 2378 1403 2484 
z
M 1172 3481 
Q 1172 3119 1398 2916 
Q 1625 2713 2034 2713 
Q 2441 2713 2670 2916 
Q 2900 3119 2900 3481 
Q 2900 3844 2670 4047 
Q 2441 4250 2034 4250 
Q 1625 4250 1398 4047 
Q 1172 3844 1172 3481 
z
" transform="scale(0.015625)"/>
        <path id="DejaVuSans-36" d="M 2113 2584 
Q 1688 2584 1439 2293 
Q 1191 2003 1191 1497 
Q 1191 994 1439 701 
Q 1688 409 2113 409 
Q 2538 409 2786 701 
Q 3034 994 3034 1497 
Q 3034 2003 2786 2293 
Q 2538 2584 2113 2584 
z
M 3366 4563 
L 3366 3988 
Q 3128 4100 2886 4159 
Q 2644 4219 2406 4219 
Q 1781 4219 1451 3797 
Q 1122 3375 1075 2522 
Q 1259 2794 1537 2939 
Q 1816 3084 2150 3084 
Q 2853 3084 3261 2657 
Q 3669 2231 3669 1497 
Q 3669 778 3244 343 
Q 2819 -91 2113 -91 
Q 1303 -91 875 529 
Q 447 1150 447 2328 
Q 447 3434 972 4092 
Q 1497 4750 2381 4750 
Q 2619 4750 2861 4703 
Q 3103 4656 3366 4563 
z
" transform="scale(0.015625)"/>
       </defs>
       <use xlink:href="#DejaVuSans-30"/>
       <use xlink:href="#DejaVuSans-2e" x="63.623047"/>
       <use xlink:href="#DejaVuSans-38" x="95.410156"/>
       <use xlink:href="#DejaVuSans-36" x="159.033203"/>
      </g>
     </g>
    </g>
    <g id="xtick_2">
     <g id="line2d_3">
      <path d="M 252.572727 504 
L 252.572727 69.12 
" clip-path="url(#p8117a4ea04)" style="fill: none; stroke: #d3d3d3; stroke-width: 0.8; stroke-linecap: square"/>
     </g>
     <g id="line2d_4">
      <g>
       <use xlink:href="#m37c9d4b91d" x="252.572727" y="504" style="stroke: #000000; stroke-width: 0.8"/>
      </g>
     </g>
     <g id="text_2">
      <!-- 0.88 -->
      <g transform="translate(241.439915 518.598438)scale(0.1 -0.1)">
       <use xlink:href="#DejaVuSans-30"/>
       <use xlink:href="#DejaVuSans-2e" x="63.623047"/>
       <use xlink:href="#DejaVuSans-38" x="95.410156"/>
       <use xlink:href="#DejaVuSans-38" x="159.033203"/>
      </g>
     </g>
    </g>
    <g id="xtick_3">
     <g id="line2d_5">
      <path d="M 328.663636 504 
L 328.663636 69.12 
" clip-path="url(#p8117a4ea04)" style="fill: none; stroke: #d3d3d3; stroke-width: 0.8; stroke-linecap: square"/>
     </g>
     <g id="line2d_6">
      <g>
       <use xlink:href="#m37c9d4b91d" x="328.663636" y="504" style="stroke: #000000; stroke-width: 0.8"/>
      </g>
     </g>
     <g id="text_3">
      <!-- 0.90 -->
      <g transform="translate(317.530824 518.598438)scale(0.1 -0.1)">
       <defs>
        <path id="DejaVuSans-39" d="M 703 97 
L 703 672 
Q 941 559 1184 500 
Q 1428 441 1663 441 
Q 2288 441 2617 861 
Q 2947 1281 2994 2138 
Q 2813 1869 2534 1725 
Q 2256 1581 1919 1581 
Q 1219 1581 811 2004 
Q 403 2428 403 3163 
Q 403 3881 828 4315 
Q 1253 4750 1959 4750 
Q 2769 4750 3195 4129 
Q 3622 3509 3622 2328 
Q 3622 1225 3098 567 
Q 2575 -91 1691 -91 
Q 1453 -91 1209 -44 
Q 966 3 703 97 
z
M 1959 2075 
Q 2384 2075 2632 2365 
Q 2881 2656 2881 3163 
Q 2881 3666 2632 3958 
Q 2384 4250 1959 4250 
Q 1534 4250 1286 3958 
Q 1038 3666 1038 3163 
Q 1038 2656 1286 2365 
Q 1534 2075 1959 2075 
z
" transform="scale(0.015625)"/>
       </defs>
       <use xlink:href="#DejaVuSans-30"/>
       <use xlink:href="#DejaVuSans-2e" x="63.623047"/>
       <use xlink:href="#DejaVuSans-39" x="95.410156"/>
       <use xlink:href="#DejaVuSans-30" x="159.033203"/>
      </g>
     </g>
    </g>
    <g id="xtick_4">
     <g id="line2d_7">
      <path d="M 404.754545 504 
L 404.754545 69.12 
" clip-path="url(#p8117a4ea04)" style="fill: none; stroke: #d3d3d3; stroke-width: 0.8; stroke-linecap: square"/>
     </g>
     <g id="line2d_8">
      <g>
       <use xlink:href="#m37c9d4b91d" x="404.754545" y="504" style="stroke: #000000; stroke-width: 0.8"/>
      </g>
     </g>
     <g id="text_4">
      <!-- 0.92 -->
      <g transform="translate(393.621733 518.598438)scale(0.1 -0.1)">
       <defs>
        <path id="DejaVuSans-32" d="M 1228 531 
L 3431 531 
L 3431 0 
L 469 0 
L 469 531 
Q 828 903 1448 1529 
Q 2069 2156 2228 2338 
Q 2531 2678 2651 2914 
Q 2772 3150 2772 3378 
Q 2772 3750 2511 3984 
Q 2250 4219 1831 4219 
Q 1534 4219 1204 4116 
Q 875 4013 500 3803 
L 500 4441 
Q 881 4594 1212 4672 
Q 1544 4750 1819 4750 
Q 2544 4750 2975 4387 
Q 3406 4025 3406 3419 
Q 3406 3131 3298 2873 
Q 3191 2616 2906 2266 
Q 2828 2175 2409 1742 
Q 1991 1309 1228 531 
z
" transform="scale(0.015625)"/>
       </defs>
       <use xlink:href="#DejaVuSans-30"/>
       <use xlink:href="#DejaVuSans-2e" x="63.623047"/>
       <use xlink:href="#DejaVuSans-39" x="95.410156"/>
       <use xlink:href="#DejaVuSans-32" x="159.033203"/>
      </g>
     </g>
    </g>
    <g id="xtick_5">
     <g id="line2d_9">
      <path d="M 480.845455 504 
L 480.845455 69.12 
" clip-path="url(#p8117a4ea04)" style="fill: none; stroke: #d3d3d3; stroke-width: 0.8; stroke-linecap: square"/>
     </g>
     <g id="line2d_10">
      <g>
       <use xlink:href="#m37c9d4b91d" x="480.845455" y="504" style="stroke: #000000; stroke-width: 0.8"/>
      </g>
     </g>
     <g id="text_5">
      <!-- 0.94 -->
      <g transform="translate(469.712642 518.598438)scale(0.1 -0.1)">
       <defs>
        <path id="DejaVuSans-34" d="M 2419 4116 
L 825 1625 
L 2419 1625 
L 2419 4116 
z
M 2253 4666 
L 3047 4666 
L 3047 1625 
L 3713 1625 
L 3713 1100 
L 3047 1100 
L 3047 0 
L 2419 0 
L 2419 1100 
L 313 1100 
L 313 1709 
L 2253 4666 
z
" transform="scale(0.015625)"/>
       </defs>
       <use xlink:href="#DejaVuSans-30"/>
       <use xlink:href="#DejaVuSans-2e" x="63.623047"/>
       <use xlink:href="#DejaVuSans-39" x="95.410156"/>
       <use xlink:href="#DejaVuSans-34" x="159.033203"/>
      </g>
     </g>
    </g>
    <g id="xtick_6">
     <g id="line2d_11">
      <path d="M 556.936364 504 
L 556.936364 69.12 
" clip-path="url(#p8117a4ea04)" style="fill: none; stroke: #d3d3d3; stroke-width: 0.8; stroke-linecap: square"/>
     </g>
     <g id="line2d_12">
      <g>
       <use xlink:href="#m37c9d4b91d" x="556.936364" y="504" style="stroke: #000000; stroke-width: 0.8"/>
      </g>
     </g>
     <g id="text_6">
      <!-- 0.96 -->
      <g transform="translate(545.803551 518.598438)scale(0.1 -0.1)">
       <use xlink:href="#DejaVuSans-30"/>
       <use xlink:href="#DejaVuSans-2e" x="63.623047"/>
       <use xlink:href="#DejaVuSans-39" x="95.410156"/>
       <use xlink:href="#DejaVuSans-36" x="159.033203"/>
      </g>
     </g>
    </g>
    <g id="xtick_7">
     <g id="line2d_13">
      <path d="M 633.027273 504 
L 633.027273 69.12 
" clip-path="url(#p8117a4ea04)" style="fill: none; stroke: #d3d3d3; stroke-width: 0.8; stroke-linecap: square"/>
     </g>
     <g id="line2d_14">
      <g>
       <use xlink:href="#m37c9d4b91d" x="633.027273" y="504" style="stroke: #000000; stroke-width: 0.8"/>
      </g>
     </g>
     <g id="text_7">
      <!-- 0.98 -->
      <g transform="translate(621.89446 518.598438)scale(0.1 -0.1)">
       <use xlink:href="#DejaVuSans-30"/>
       <use xlink:href="#DejaVuSans-2e" x="63.623047"/>
       <use xlink:href="#DejaVuSans-39" x="95.410156"/>
       <use xlink:href="#DejaVuSans-38" x="159.033203"/>
      </g>
     </g>
    </g>
    <g id="xtick_8">
     <g id="line2d_15">
      <path d="M 709.118182 504 
L 709.118182 69.12 
" clip-path="url(#p8117a4ea04)" style="fill: none; stroke: #d3d3d3; stroke-width: 0.8; stroke-linecap: square"/>
     </g>
     <g id="line2d_16">
      <g>
       <use xlink:href="#m37c9d4b91d" x="709.118182" y="504" style="stroke: #000000; stroke-width: 0.8"/>
      </g>
     </g>
     <g id="text_8">
      <!-- 1.00 -->
      <g transform="translate(697.985369 518.598438)scale(0.1 -0.1)">
       <defs>
        <path id="DejaVuSans-31" d="M 794 531 
L 1825 531 
L 1825 4091 
L 703 3866 
L 703 4441 
L 1819 4666 
L 2450 4666 
L 2450 531 
L 3481 531 
L 3481 0 
L 794 0 
L 794 531 
z
" transform="scale(0.015625)"/>
       </defs>
       <use xlink:href="#DejaVuSans-31"/>
       <use xlink:href="#DejaVuSans-2e" x="63.623047"/>
       <use xlink:href="#DejaVuSans-30" x="95.410156"/>
       <use xlink:href="#DejaVuSans-30" x="159.033203"/>
      </g>
     </g>
    </g>
   </g>
   <g id="matplotlib.axis_2">
    <g id="ytick_1">
     <g id="line2d_17">
      <defs>
       <path id="m8735e97781" d="M 0 0 
L -3.5 0 
" style="stroke: #000000; stroke-width: 0.8"/>
      </defs>
      <g>
       <use xlink:href="#m8735e97781" x="108" y="504" style="stroke: #000000; stroke-width: 0.8"/>
      </g>
     </g>
     <g id="text_9">
      <!-- 0 -->
      <g transform="translate(94.6375 507.799219)scale(0.1 -0.1)">
       <use xlink:href="#DejaVuSans-30"/>
      </g>
     </g>
    </g>
    <g id="ytick_2">
     <g id="line2d_18">
      <g>
       <use xlink:href="#m8735e97781" x="108" y="426.294291" style="stroke: #000000; stroke-width: 0.8"/>
      </g>
     </g>
     <g id="text_10">
      <!-- 100 -->
      <g transform="translate(81.9125 430.09351)scale(0.1 -0.1)">
       <use xlink:href="#DejaVuSans-31"/>
       <use xlink:href="#DejaVuSans-30" x="63.623047"/>
       <use xlink:href="#DejaVuSans-30" x="127.246094"/>
      </g>
     </g>
    </g>
    <g id="ytick_3">
     <g id="line2d_19">
      <g>
       <use xlink:href="#m8735e97781" x="108" y="348.588582" style="stroke: #000000; stroke-width: 0.8"/>
      </g>
     </g>
     <g id="text_11">
      <!-- 200 -->
      <g transform="translate(81.9125 352.387801)scale(0.1 -0.1)">
       <use xlink:href="#DejaVuSans-32"/>
       <use xlink:href="#DejaVuSans-30" x="63.623047"/>
       <use xlink:href="#DejaVuSans-30" x="127.246094"/>
      </g>
     </g>
    </g>
    <g id="ytick_4">
     <g id="line2d_20">
      <g>
       <use xlink:href="#m8735e97781" x="108" y="270.882873" style="stroke: #000000; stroke-width: 0.8"/>
      </g>
     </g>
     <g id="text_12">
      <!-- 300 -->
      <g transform="translate(81.9125 274.682092)scale(0.1 -0.1)">
       <defs>
        <path id="DejaVuSans-33" d="M 2597 2516 
Q 3050 2419 3304 2112 
Q 3559 1806 3559 1356 
Q 3559 666 3084 287 
Q 2609 -91 1734 -91 
Q 1441 -91 1130 -33 
Q 819 25 488 141 
L 488 750 
Q 750 597 1062 519 
Q 1375 441 1716 441 
Q 2309 441 2620 675 
Q 2931 909 2931 1356 
Q 2931 1769 2642 2001 
Q 2353 2234 1838 2234 
L 1294 2234 
L 1294 2753 
L 1863 2753 
Q 2328 2753 2575 2939 
Q 2822 3125 2822 3475 
Q 2822 3834 2567 4026 
Q 2313 4219 1838 4219 
Q 1578 4219 1281 4162 
Q 984 4106 628 3988 
L 628 4550 
Q 988 4650 1302 4700 
Q 1616 4750 1894 4750 
Q 2613 4750 3031 4423 
Q 3450 4097 3450 3541 
Q 3450 3153 3228 2886 
Q 3006 2619 2597 2516 
z
" transform="scale(0.015625)"/>
       </defs>
       <use xlink:href="#DejaVuSans-33"/>
       <use xlink:href="#DejaVuSans-30" x="63.623047"/>
       <use xlink:href="#DejaVuSans-30" x="127.246094"/>
      </g>
     </g>
    </g>
    <g id="ytick_5">
     <g id="line2d_21">
      <g>
       <use xlink:href="#m8735e97781" x="108" y="193.177164" style="stroke: #000000; stroke-width: 0.8"/>
      </g>
     </g>
     <g id="text_13">
      <!-- 400 -->
      <g transform="translate(81.9125 196.976383)scale(0.1 -0.1)">
       <use xlink:href="#DejaVuSans-34"/>
       <use xlink:href="#DejaVuSans-30" x="63.623047"/>
       <use xlink:href="#DejaVuSans-30" x="127.246094"/>
      </g>
     </g>
    </g>
    <g id="ytick_6">
     <g id="line2d_22">
      <g>
       <use xlink:href="#m8735e97781" x="108" y="115.471455" style="stroke: #000000; stroke-width: 0.8"/>
      </g>
     </g>
     <g id="text_14">
      <!-- 500 -->
      <g transform="translate(81.9125 119.270674)scale(0.1 -0.1)">
       <defs>
        <path id="DejaVuSans-35" d="M 691 4666 
L 3169 4666 
L 3169 4134 
L 1269 4134 
L 1269 2991 
Q 1406 3038 1543 3061 
Q 1681 3084 1819 3084 
Q 2600 3084 3056 2656 
Q 3513 2228 3513 1497 
Q 3513 744 3044 326 
Q 2575 -91 1722 -91 
Q 1428 -91 1123 -41 
Q 819 9 494 109 
L 494 744 
Q 775 591 1075 516 
Q 1375 441 1709 441 
Q 2250 441 2565 725 
Q 2881 1009 2881 1497 
Q 2881 1984 2565 2268 
Q 2250 2553 1709 2553 
Q 1456 2553 1204 2497 
Q 953 2441 691 2322 
L 691 4666 
z
" transform="scale(0.015625)"/>
       </defs>
       <use xlink:href="#DejaVuSans-35"/>
       <use xlink:href="#DejaVuSans-30" x="63.623047"/>
       <use xlink:href="#DejaVuSans-30" x="127.246094"/>
      </g>
     </g>
    </g>
   </g>
   <g id="line2d_23">
    <path d="M 567.024503 504 
L 567.024503 69.12 
" clip-path="url(#p8117a4ea04)" style="fill: none; stroke: #ff7f50; stroke-width: 1.5; stroke-linecap: square"/>
   </g>
   <g id="patch_163">
    <path d="M 108 504 
L 108 69.12 
" style="fill: none; stroke: #000000; stroke-width: 0.8; stroke-linejoin: miter; stroke-linecap: square"/>
   </g>
   <g id="patch_164">
    <path d="M 777.6 504 
L 777.6 69.12 
" style="fill: none; stroke: #000000; stroke-width: 0.8; stroke-linejoin: miter; stroke-linecap: square"/>
   </g>
   <g id="patch_165">
    <path d="M 108 504 
L 777.6 504 
" style="fill: none; stroke: #000000; stroke-width: 0.8; stroke-linejoin: miter; stroke-linecap: square"/>
   </g>
   <g id="patch_166">
    <path d="M 108 69.12 
L 777.6 69.12 
" style="fill: none; stroke: #000000; stroke-width: 0.8; stroke-linejoin: miter; stroke-linecap: square"/>
   </g>
   <g id="text_15">
    <!-- Histogram of cosine similaritiy means for all 6046 sentences -->
    <g transform="translate(260.773125 63.12)scale(0.12 -0.12)">
     <defs>
      <path id="DejaVuSans-48" d="M 628 4666 
L 1259 4666 
L 1259 2753 
L 3553 2753 
L 3553 4666 
L 4184 4666 
L 4184 0 
L 3553 0 
L 3553 2222 
L 1259 2222 
L 1259 0 
L 628 0 
L 628 4666 
z
" transform="scale(0.015625)"/>
      <path id="DejaVuSans-69" d="M 603 3500 
L 1178 3500 
L 1178 0 
L 603 0 
L 603 3500 
z
M 603 4863 
L 1178 4863 
L 1178 4134 
L 603 4134 
L 603 4863 
z
" transform="scale(0.015625)"/>
      <path id="DejaVuSans-73" d="M 2834 3397 
L 2834 2853 
Q 2591 2978 2328 3040 
Q 2066 3103 1784 3103 
Q 1356 3103 1142 2972 
Q 928 2841 928 2578 
Q 928 2378 1081 2264 
Q 1234 2150 1697 2047 
L 1894 2003 
Q 2506 1872 2764 1633 
Q 3022 1394 3022 966 
Q 3022 478 2636 193 
Q 2250 -91 1575 -91 
Q 1294 -91 989 -36 
Q 684 19 347 128 
L 347 722 
Q 666 556 975 473 
Q 1284 391 1588 391 
Q 1994 391 2212 530 
Q 2431 669 2431 922 
Q 2431 1156 2273 1281 
Q 2116 1406 1581 1522 
L 1381 1569 
Q 847 1681 609 1914 
Q 372 2147 372 2553 
Q 372 3047 722 3315 
Q 1072 3584 1716 3584 
Q 2034 3584 2315 3537 
Q 2597 3491 2834 3397 
z
" transform="scale(0.015625)"/>
      <path id="DejaVuSans-74" d="M 1172 4494 
L 1172 3500 
L 2356 3500 
L 2356 3053 
L 1172 3053 
L 1172 1153 
Q 1172 725 1289 603 
Q 1406 481 1766 481 
L 2356 481 
L 2356 0 
L 1766 0 
Q 1100 0 847 248 
Q 594 497 594 1153 
L 594 3053 
L 172 3053 
L 172 3500 
L 594 3500 
L 594 4494 
L 1172 4494 
z
" transform="scale(0.015625)"/>
      <path id="DejaVuSans-6f" d="M 1959 3097 
Q 1497 3097 1228 2736 
Q 959 2375 959 1747 
Q 959 1119 1226 758 
Q 1494 397 1959 397 
Q 2419 397 2687 759 
Q 2956 1122 2956 1747 
Q 2956 2369 2687 2733 
Q 2419 3097 1959 3097 
z
M 1959 3584 
Q 2709 3584 3137 3096 
Q 3566 2609 3566 1747 
Q 3566 888 3137 398 
Q 2709 -91 1959 -91 
Q 1206 -91 779 398 
Q 353 888 353 1747 
Q 353 2609 779 3096 
Q 1206 3584 1959 3584 
z
" transform="scale(0.015625)"/>
      <path id="DejaVuSans-67" d="M 2906 1791 
Q 2906 2416 2648 2759 
Q 2391 3103 1925 3103 
Q 1463 3103 1205 2759 
Q 947 2416 947 1791 
Q 947 1169 1205 825 
Q 1463 481 1925 481 
Q 2391 481 2648 825 
Q 2906 1169 2906 1791 
z
M 3481 434 
Q 3481 -459 3084 -895 
Q 2688 -1331 1869 -1331 
Q 1566 -1331 1297 -1286 
Q 1028 -1241 775 -1147 
L 775 -588 
Q 1028 -725 1275 -790 
Q 1522 -856 1778 -856 
Q 2344 -856 2625 -561 
Q 2906 -266 2906 331 
L 2906 616 
Q 2728 306 2450 153 
Q 2172 0 1784 0 
Q 1141 0 747 490 
Q 353 981 353 1791 
Q 353 2603 747 3093 
Q 1141 3584 1784 3584 
Q 2172 3584 2450 3431 
Q 2728 3278 2906 2969 
L 2906 3500 
L 3481 3500 
L 3481 434 
z
" transform="scale(0.015625)"/>
      <path id="DejaVuSans-72" d="M 2631 2963 
Q 2534 3019 2420 3045 
Q 2306 3072 2169 3072 
Q 1681 3072 1420 2755 
Q 1159 2438 1159 1844 
L 1159 0 
L 581 0 
L 581 3500 
L 1159 3500 
L 1159 2956 
Q 1341 3275 1631 3429 
Q 1922 3584 2338 3584 
Q 2397 3584 2469 3576 
Q 2541 3569 2628 3553 
L 2631 2963 
z
" transform="scale(0.015625)"/>
      <path id="DejaVuSans-61" d="M 2194 1759 
Q 1497 1759 1228 1600 
Q 959 1441 959 1056 
Q 959 750 1161 570 
Q 1363 391 1709 391 
Q 2188 391 2477 730 
Q 2766 1069 2766 1631 
L 2766 1759 
L 2194 1759 
z
M 3341 1997 
L 3341 0 
L 2766 0 
L 2766 531 
Q 2569 213 2275 61 
Q 1981 -91 1556 -91 
Q 1019 -91 701 211 
Q 384 513 384 1019 
Q 384 1609 779 1909 
Q 1175 2209 1959 2209 
L 2766 2209 
L 2766 2266 
Q 2766 2663 2505 2880 
Q 2244 3097 1772 3097 
Q 1472 3097 1187 3025 
Q 903 2953 641 2809 
L 641 3341 
Q 956 3463 1253 3523 
Q 1550 3584 1831 3584 
Q 2591 3584 2966 3190 
Q 3341 2797 3341 1997 
z
" transform="scale(0.015625)"/>
      <path id="DejaVuSans-6d" d="M 3328 2828 
Q 3544 3216 3844 3400 
Q 4144 3584 4550 3584 
Q 5097 3584 5394 3201 
Q 5691 2819 5691 2113 
L 5691 0 
L 5113 0 
L 5113 2094 
Q 5113 2597 4934 2840 
Q 4756 3084 4391 3084 
Q 3944 3084 3684 2787 
Q 3425 2491 3425 1978 
L 3425 0 
L 2847 0 
L 2847 2094 
Q 2847 2600 2669 2842 
Q 2491 3084 2119 3084 
Q 1678 3084 1418 2786 
Q 1159 2488 1159 1978 
L 1159 0 
L 581 0 
L 581 3500 
L 1159 3500 
L 1159 2956 
Q 1356 3278 1631 3431 
Q 1906 3584 2284 3584 
Q 2666 3584 2933 3390 
Q 3200 3197 3328 2828 
z
" transform="scale(0.015625)"/>
      <path id="DejaVuSans-20" transform="scale(0.015625)"/>
      <path id="DejaVuSans-66" d="M 2375 4863 
L 2375 4384 
L 1825 4384 
Q 1516 4384 1395 4259 
Q 1275 4134 1275 3809 
L 1275 3500 
L 2222 3500 
L 2222 3053 
L 1275 3053 
L 1275 0 
L 697 0 
L 697 3053 
L 147 3053 
L 147 3500 
L 697 3500 
L 697 3744 
Q 697 4328 969 4595 
Q 1241 4863 1831 4863 
L 2375 4863 
z
" transform="scale(0.015625)"/>
      <path id="DejaVuSans-63" d="M 3122 3366 
L 3122 2828 
Q 2878 2963 2633 3030 
Q 2388 3097 2138 3097 
Q 1578 3097 1268 2742 
Q 959 2388 959 1747 
Q 959 1106 1268 751 
Q 1578 397 2138 397 
Q 2388 397 2633 464 
Q 2878 531 3122 666 
L 3122 134 
Q 2881 22 2623 -34 
Q 2366 -91 2075 -91 
Q 1284 -91 818 406 
Q 353 903 353 1747 
Q 353 2603 823 3093 
Q 1294 3584 2113 3584 
Q 2378 3584 2631 3529 
Q 2884 3475 3122 3366 
z
" transform="scale(0.015625)"/>
      <path id="DejaVuSans-6e" d="M 3513 2113 
L 3513 0 
L 2938 0 
L 2938 2094 
Q 2938 2591 2744 2837 
Q 2550 3084 2163 3084 
Q 1697 3084 1428 2787 
Q 1159 2491 1159 1978 
L 1159 0 
L 581 0 
L 581 3500 
L 1159 3500 
L 1159 2956 
Q 1366 3272 1645 3428 
Q 1925 3584 2291 3584 
Q 2894 3584 3203 3211 
Q 3513 2838 3513 2113 
z
" transform="scale(0.015625)"/>
      <path id="DejaVuSans-65" d="M 3597 1894 
L 3597 1613 
L 953 1613 
Q 991 1019 1311 708 
Q 1631 397 2203 397 
Q 2534 397 2845 478 
Q 3156 559 3463 722 
L 3463 178 
Q 3153 47 2828 -22 
Q 2503 -91 2169 -91 
Q 1331 -91 842 396 
Q 353 884 353 1716 
Q 353 2575 817 3079 
Q 1281 3584 2069 3584 
Q 2775 3584 3186 3129 
Q 3597 2675 3597 1894 
z
M 3022 2063 
Q 3016 2534 2758 2815 
Q 2500 3097 2075 3097 
Q 1594 3097 1305 2825 
Q 1016 2553 972 2059 
L 3022 2063 
z
" transform="scale(0.015625)"/>
      <path id="DejaVuSans-6c" d="M 603 4863 
L 1178 4863 
L 1178 0 
L 603 0 
L 603 4863 
z
" transform="scale(0.015625)"/>
      <path id="DejaVuSans-79" d="M 2059 -325 
Q 1816 -950 1584 -1140 
Q 1353 -1331 966 -1331 
L 506 -1331 
L 506 -850 
L 844 -850 
Q 1081 -850 1212 -737 
Q 1344 -625 1503 -206 
L 1606 56 
L 191 3500 
L 800 3500 
L 1894 763 
L 2988 3500 
L 3597 3500 
L 2059 -325 
z
" transform="scale(0.015625)"/>
     </defs>
     <use xlink:href="#DejaVuSans-48"/>
     <use xlink:href="#DejaVuSans-69" x="75.195312"/>
     <use xlink:href="#DejaVuSans-73" x="102.978516"/>
     <use xlink:href="#DejaVuSans-74" x="155.078125"/>
     <use xlink:href="#DejaVuSans-6f" x="194.287109"/>
     <use xlink:href="#DejaVuSans-67" x="255.46875"/>
     <use xlink:href="#DejaVuSans-72" x="318.945312"/>
     <use xlink:href="#DejaVuSans-61" x="360.058594"/>
     <use xlink:href="#DejaVuSans-6d" x="421.337891"/>
     <use xlink:href="#DejaVuSans-20" x="518.75"/>
     <use xlink:href="#DejaVuSans-6f" x="550.537109"/>
     <use xlink:href="#DejaVuSans-66" x="611.71875"/>
     <use xlink:href="#DejaVuSans-20" x="646.923828"/>
     <use xlink:href="#DejaVuSans-63" x="678.710938"/>
     <use xlink:href="#DejaVuSans-6f" x="733.691406"/>
     <use xlink:href="#DejaVuSans-73" x="794.873047"/>
     <use xlink:href="#DejaVuSans-69" x="846.972656"/>
     <use xlink:href="#DejaVuSans-6e" x="874.755859"/>
     <use xlink:href="#DejaVuSans-65" x="938.134766"/>
     <use xlink:href="#DejaVuSans-20" x="999.658203"/>
     <use xlink:href="#DejaVuSans-73" x="1031.445312"/>
     <use xlink:href="#DejaVuSans-69" x="1083.544922"/>
     <use xlink:href="#DejaVuSans-6d" x="1111.328125"/>
     <use xlink:href="#DejaVuSans-69" x="1208.740234"/>
     <use xlink:href="#DejaVuSans-6c" x="1236.523438"/>
     <use xlink:href="#DejaVuSans-61" x="1264.306641"/>
     <use xlink:href="#DejaVuSans-72" x="1325.585938"/>
     <use xlink:href="#DejaVuSans-69" x="1366.699219"/>
     <use xlink:href="#DejaVuSans-74" x="1394.482422"/>
     <use xlink:href="#DejaVuSans-69" x="1433.691406"/>
     <use xlink:href="#DejaVuSans-79" x="1461.474609"/>
     <use xlink:href="#DejaVuSans-20" x="1520.654297"/>
     <use xlink:href="#DejaVuSans-6d" x="1552.441406"/>
     <use xlink:href="#DejaVuSans-65" x="1649.853516"/>
     <use xlink:href="#DejaVuSans-61" x="1711.376953"/>
     <use xlink:href="#DejaVuSans-6e" x="1772.65625"/>
     <use xlink:href="#DejaVuSans-73" x="1836.035156"/>
     <use xlink:href="#DejaVuSans-20" x="1888.134766"/>
     <use xlink:href="#DejaVuSans-66" x="1919.921875"/>
     <use xlink:href="#DejaVuSans-6f" x="1955.126953"/>
     <use xlink:href="#DejaVuSans-72" x="2016.308594"/>
     <use xlink:href="#DejaVuSans-20" x="2057.421875"/>
     <use xlink:href="#DejaVuSans-61" x="2089.208984"/>
     <use xlink:href="#DejaVuSans-6c" x="2150.488281"/>
     <use xlink:href="#DejaVuSans-6c" x="2178.271484"/>
     <use xlink:href="#DejaVuSans-20" x="2206.054688"/>
     <use xlink:href="#DejaVuSans-36" x="2237.841797"/>
     <use xlink:href="#DejaVuSans-30" x="2301.464844"/>
     <use xlink:href="#DejaVuSans-34" x="2365.087891"/>
     <use xlink:href="#DejaVuSans-36" x="2428.710938"/>
     <use xlink:href="#DejaVuSans-20" x="2492.333984"/>
     <use xlink:href="#DejaVuSans-73" x="2524.121094"/>
     <use xlink:href="#DejaVuSans-65" x="2576.220703"/>
     <use xlink:href="#DejaVuSans-6e" x="2637.744141"/>
     <use xlink:href="#DejaVuSans-74" x="2701.123047"/>
     <use xlink:href="#DejaVuSans-65" x="2740.332031"/>
     <use xlink:href="#DejaVuSans-6e" x="2801.855469"/>
     <use xlink:href="#DejaVuSans-63" x="2865.234375"/>
     <use xlink:href="#DejaVuSans-65" x="2920.214844"/>
     <use xlink:href="#DejaVuSans-73" x="2981.738281"/>
    </g>
   </g>
  </g>
 </g>
 <defs>
  <clipPath id="p8117a4ea04">
   <rect x="108" y="69.12" width="669.6" height="434.88"/>
  </clipPath>
 </defs>
</svg>
