<?xml version="1.0" encoding="utf-8" standalone="no"?>
<!DOCTYPE svg PUBLIC "-//W3C//DTD SVG 1.1//EN"
  "http://www.w3.org/Graphics/SVG/1.1/DTD/svg11.dtd">
<svg xmlns:xlink="http://www.w3.org/1999/xlink" width="864pt" height="576pt" viewBox="0 0 864 576" xmlns="http://www.w3.org/2000/svg" version="1.1">
 <metadata>
  <rdf:RDF xmlns:dc="http://purl.org/dc/elements/1.1/" xmlns:cc="http://creativecommons.org/ns#" xmlns:rdf="http://www.w3.org/1999/02/22-rdf-syntax-ns#">
   <cc:Work>
    <dc:type rdf:resource="http://purl.org/dc/dcmitype/StillImage"/>
    <dc:date>2023-07-29T19:34:18.172467</dc:date>
    <dc:format>image/svg+xml</dc:format>
    <dc:creator>
     <cc:Agent>
      <dc:title>Matplotlib v3.5.1, https://matplotlib.org/</dc:title>
     </cc:Agent>
    </dc:creator>
   </cc:Work>
  </rdf:RDF>
 </metadata>
 <defs>
  <style type="text/css">*{stroke-linejoin: round; stroke-linecap: butt}</style>
 </defs>
 <g id="figure_1">
  <g id="patch_1">
   <path d="M 0 576 
L 864 576 
L 864 0 
L 0 0 
L 0 576 
z
" style="fill: none"/>
  </g>
  <g id="axes_1">
   <g id="patch_2">
    <path d="M 108 504 
L 777.6 504 
L 777.6 69.12 
L 108 69.12 
z
" style="fill: #ffffff"/>
   </g>
   <g id="patch_3">
    <path d="M 138.436364 504 
L 140.786662 504 
L 140.786662 504 
L 138.436364 504 
z
" clip-path="url(#p158598c79b)" style="fill: #add8e6"/>
   </g>
   <g id="patch_4">
    <path d="M 140.786662 504 
L 143.13696 504 
L 143.13696 503.998714 
L 140.786662 503.998714 
z
" clip-path="url(#p158598c79b)" style="fill: #add8e6"/>
   </g>
   <g id="patch_5">
    <path d="M 143.13696 504 
L 145.487259 504 
L 145.487259 504 
L 143.13696 504 
z
" clip-path="url(#p158598c79b)" style="fill: #add8e6"/>
   </g>
   <g id="patch_6">
    <path d="M 145.487259 504 
L 147.837557 504 
L 147.837557 504 
L 145.487259 504 
z
" clip-path="url(#p158598c79b)" style="fill: #add8e6"/>
   </g>
   <g id="patch_7">
    <path d="M 147.837557 504 
L 150.187855 504 
L 150.187855 504 
L 147.837557 504 
z
" clip-path="url(#p158598c79b)" style="fill: #add8e6"/>
   </g>
   <g id="patch_8">
    <path d="M 150.187855 504 
L 152.538154 504 
L 152.538154 504 
L 150.187855 504 
z
" clip-path="url(#p158598c79b)" style="fill: #add8e6"/>
   </g>
   <g id="patch_9">
    <path d="M 152.538154 504 
L 154.888452 504 
L 154.888452 504 
L 152.538154 504 
z
" clip-path="url(#p158598c79b)" style="fill: #add8e6"/>
   </g>
   <g id="patch_10">
    <path d="M 154.888452 504 
L 157.23875 504 
L 157.23875 504 
L 154.888452 504 
z
" clip-path="url(#p158598c79b)" style="fill: #add8e6"/>
   </g>
   <g id="patch_11">
    <path d="M 157.23875 504 
L 159.589049 504 
L 159.589049 504 
L 157.23875 504 
z
" clip-path="url(#p158598c79b)" style="fill: #add8e6"/>
   </g>
   <g id="patch_12">
    <path d="M 159.589049 504 
L 161.939347 504 
L 161.939347 504 
L 159.589049 504 
z
" clip-path="url(#p158598c79b)" style="fill: #add8e6"/>
   </g>
   <g id="patch_13">
    <path d="M 161.939347 504 
L 164.289645 504 
L 164.289645 504 
L 161.939347 504 
z
" clip-path="url(#p158598c79b)" style="fill: #add8e6"/>
   </g>
   <g id="patch_14">
    <path d="M 164.289645 504 
L 166.639944 504 
L 166.639944 504 
L 164.289645 504 
z
" clip-path="url(#p158598c79b)" style="fill: #add8e6"/>
   </g>
   <g id="patch_15">
    <path d="M 166.639944 504 
L 168.990242 504 
L 168.990242 504 
L 166.639944 504 
z
" clip-path="url(#p158598c79b)" style="fill: #add8e6"/>
   </g>
   <g id="patch_16">
    <path d="M 168.990242 504 
L 171.340541 504 
L 171.340541 504 
L 168.990242 504 
z
" clip-path="url(#p158598c79b)" style="fill: #add8e6"/>
   </g>
   <g id="patch_17">
    <path d="M 171.340541 504 
L 173.690839 504 
L 173.690839 504 
L 171.340541 504 
z
" clip-path="url(#p158598c79b)" style="fill: #add8e6"/>
   </g>
   <g id="patch_18">
    <path d="M 173.690839 504 
L 176.041137 504 
L 176.041137 504 
L 173.690839 504 
z
" clip-path="url(#p158598c79b)" style="fill: #add8e6"/>
   </g>
   <g id="patch_19">
    <path d="M 176.041137 504 
L 178.391436 504 
L 178.391436 504 
L 176.041137 504 
z
" clip-path="url(#p158598c79b)" style="fill: #add8e6"/>
   </g>
   <g id="patch_20">
    <path d="M 178.391436 504 
L 180.741734 504 
L 180.741734 504 
L 178.391436 504 
z
" clip-path="url(#p158598c79b)" style="fill: #add8e6"/>
   </g>
   <g id="patch_21">
    <path d="M 180.741734 504 
L 183.092032 504 
L 183.092032 504 
L 180.741734 504 
z
" clip-path="url(#p158598c79b)" style="fill: #add8e6"/>
   </g>
   <g id="patch_22">
    <path d="M 183.092032 504 
L 185.442331 504 
L 185.442331 504 
L 183.092032 504 
z
" clip-path="url(#p158598c79b)" style="fill: #add8e6"/>
   </g>
   <g id="patch_23">
    <path d="M 185.442331 504 
L 187.792629 504 
L 187.792629 504 
L 185.442331 504 
z
" clip-path="url(#p158598c79b)" style="fill: #add8e6"/>
   </g>
   <g id="patch_24">
    <path d="M 187.792629 504 
L 190.142927 504 
L 190.142927 504 
L 187.792629 504 
z
" clip-path="url(#p158598c79b)" style="fill: #add8e6"/>
   </g>
   <g id="patch_25">
    <path d="M 190.142927 504 
L 192.493226 504 
L 192.493226 503.999357 
L 190.142927 503.999357 
z
" clip-path="url(#p158598c79b)" style="fill: #add8e6"/>
   </g>
   <g id="patch_26">
    <path d="M 192.493226 504 
L 194.843524 504 
L 194.843524 504 
L 192.493226 504 
z
" clip-path="url(#p158598c79b)" style="fill: #add8e6"/>
   </g>
   <g id="patch_27">
    <path d="M 194.843524 504 
L 197.193822 504 
L 197.193822 504 
L 194.843524 504 
z
" clip-path="url(#p158598c79b)" style="fill: #add8e6"/>
   </g>
   <g id="patch_28">
    <path d="M 197.193822 504 
L 199.544121 504 
L 199.544121 504 
L 197.193822 504 
z
" clip-path="url(#p158598c79b)" style="fill: #add8e6"/>
   </g>
   <g id="patch_29">
    <path d="M 199.544121 504 
L 201.894419 504 
L 201.894419 504 
L 199.544121 504 
z
" clip-path="url(#p158598c79b)" style="fill: #add8e6"/>
   </g>
   <g id="patch_30">
    <path d="M 201.894419 504 
L 204.244717 504 
L 204.244717 504 
L 201.894419 504 
z
" clip-path="url(#p158598c79b)" style="fill: #add8e6"/>
   </g>
   <g id="patch_31">
    <path d="M 204.244717 504 
L 206.595016 504 
L 206.595016 504 
L 204.244717 504 
z
" clip-path="url(#p158598c79b)" style="fill: #add8e6"/>
   </g>
   <g id="patch_32">
    <path d="M 206.595016 504 
L 208.945314 504 
L 208.945314 504 
L 206.595016 504 
z
" clip-path="url(#p158598c79b)" style="fill: #add8e6"/>
   </g>
   <g id="patch_33">
    <path d="M 208.945314 504 
L 211.295612 504 
L 211.295612 504 
L 208.945314 504 
z
" clip-path="url(#p158598c79b)" style="fill: #add8e6"/>
   </g>
   <g id="patch_34">
    <path d="M 211.295612 504 
L 213.645911 504 
L 213.645911 504 
L 211.295612 504 
z
" clip-path="url(#p158598c79b)" style="fill: #add8e6"/>
   </g>
   <g id="patch_35">
    <path d="M 213.645911 504 
L 215.996209 504 
L 215.996209 504 
L 213.645911 504 
z
" clip-path="url(#p158598c79b)" style="fill: #add8e6"/>
   </g>
   <g id="patch_36">
    <path d="M 215.996209 504 
L 218.346508 504 
L 218.346508 504 
L 215.996209 504 
z
" clip-path="url(#p158598c79b)" style="fill: #add8e6"/>
   </g>
   <g id="patch_37">
    <path d="M 218.346508 504 
L 220.696806 504 
L 220.696806 504 
L 218.346508 504 
z
" clip-path="url(#p158598c79b)" style="fill: #add8e6"/>
   </g>
   <g id="patch_38">
    <path d="M 220.696806 504 
L 223.047104 504 
L 223.047104 503.998714 
L 220.696806 503.998714 
z
" clip-path="url(#p158598c79b)" style="fill: #add8e6"/>
   </g>
   <g id="patch_39">
    <path d="M 223.047104 504 
L 225.397403 504 
L 225.397403 503.997429 
L 223.047104 503.997429 
z
" clip-path="url(#p158598c79b)" style="fill: #add8e6"/>
   </g>
   <g id="patch_40">
    <path d="M 225.397403 504 
L 227.747701 504 
L 227.747701 503.998714 
L 225.397403 503.998714 
z
" clip-path="url(#p158598c79b)" style="fill: #add8e6"/>
   </g>
   <g id="patch_41">
    <path d="M 227.747701 504 
L 230.097999 504 
L 230.097999 504 
L 227.747701 504 
z
" clip-path="url(#p158598c79b)" style="fill: #add8e6"/>
   </g>
   <g id="patch_42">
    <path d="M 230.097999 504 
L 232.448298 504 
L 232.448298 504 
L 230.097999 504 
z
" clip-path="url(#p158598c79b)" style="fill: #add8e6"/>
   </g>
   <g id="patch_43">
    <path d="M 232.448298 504 
L 234.798596 504 
L 234.798596 504 
L 232.448298 504 
z
" clip-path="url(#p158598c79b)" style="fill: #add8e6"/>
   </g>
   <g id="patch_44">
    <path d="M 234.798596 504 
L 237.148894 504 
L 237.148894 504 
L 234.798596 504 
z
" clip-path="url(#p158598c79b)" style="fill: #add8e6"/>
   </g>
   <g id="patch_45">
    <path d="M 237.148894 504 
L 239.499193 504 
L 239.499193 504 
L 237.148894 504 
z
" clip-path="url(#p158598c79b)" style="fill: #add8e6"/>
   </g>
   <g id="patch_46">
    <path d="M 239.499193 504 
L 241.849491 504 
L 241.849491 503.999357 
L 239.499193 503.999357 
z
" clip-path="url(#p158598c79b)" style="fill: #add8e6"/>
   </g>
   <g id="patch_47">
    <path d="M 241.849491 504 
L 244.199789 504 
L 244.199789 503.997429 
L 241.849491 503.997429 
z
" clip-path="url(#p158598c79b)" style="fill: #add8e6"/>
   </g>
   <g id="patch_48">
    <path d="M 244.199789 504 
L 246.550088 504 
L 246.550088 504 
L 244.199789 504 
z
" clip-path="url(#p158598c79b)" style="fill: #add8e6"/>
   </g>
   <g id="patch_49">
    <path d="M 246.550088 504 
L 248.900386 504 
L 248.900386 504 
L 246.550088 504 
z
" clip-path="url(#p158598c79b)" style="fill: #add8e6"/>
   </g>
   <g id="patch_50">
    <path d="M 248.900386 504 
L 251.250684 504 
L 251.250684 504 
L 248.900386 504 
z
" clip-path="url(#p158598c79b)" style="fill: #add8e6"/>
   </g>
   <g id="patch_51">
    <path d="M 251.250684 504 
L 253.600983 504 
L 253.600983 503.998714 
L 251.250684 503.998714 
z
" clip-path="url(#p158598c79b)" style="fill: #add8e6"/>
   </g>
   <g id="patch_52">
    <path d="M 253.600983 504 
L 255.951281 504 
L 255.951281 504 
L 253.600983 504 
z
" clip-path="url(#p158598c79b)" style="fill: #add8e6"/>
   </g>
   <g id="patch_53">
    <path d="M 255.951281 504 
L 258.30158 504 
L 258.30158 504 
L 255.951281 504 
z
" clip-path="url(#p158598c79b)" style="fill: #add8e6"/>
   </g>
   <g id="patch_54">
    <path d="M 258.30158 504 
L 260.651878 504 
L 260.651878 503.994857 
L 258.30158 503.994857 
z
" clip-path="url(#p158598c79b)" style="fill: #add8e6"/>
   </g>
   <g id="patch_55">
    <path d="M 260.651878 504 
L 263.002176 504 
L 263.002176 503.998714 
L 260.651878 503.998714 
z
" clip-path="url(#p158598c79b)" style="fill: #add8e6"/>
   </g>
   <g id="patch_56">
    <path d="M 263.002176 504 
L 265.352475 504 
L 265.352475 503.998714 
L 263.002176 503.998714 
z
" clip-path="url(#p158598c79b)" style="fill: #add8e6"/>
   </g>
   <g id="patch_57">
    <path d="M 265.352475 504 
L 267.702773 504 
L 267.702773 503.992286 
L 265.352475 503.992286 
z
" clip-path="url(#p158598c79b)" style="fill: #add8e6"/>
   </g>
   <g id="patch_58">
    <path d="M 267.702773 504 
L 270.053071 504 
L 270.053071 503.998714 
L 267.702773 503.998714 
z
" clip-path="url(#p158598c79b)" style="fill: #add8e6"/>
   </g>
   <g id="patch_59">
    <path d="M 270.053071 504 
L 272.40337 504 
L 272.40337 503.998714 
L 270.053071 503.998714 
z
" clip-path="url(#p158598c79b)" style="fill: #add8e6"/>
   </g>
   <g id="patch_60">
    <path d="M 272.40337 504 
L 274.753668 504 
L 274.753668 503.994857 
L 272.40337 503.994857 
z
" clip-path="url(#p158598c79b)" style="fill: #add8e6"/>
   </g>
   <g id="patch_61">
    <path d="M 274.753668 504 
L 277.103966 504 
L 277.103966 503.994857 
L 274.753668 503.994857 
z
" clip-path="url(#p158598c79b)" style="fill: #add8e6"/>
   </g>
   <g id="patch_62">
    <path d="M 277.103966 504 
L 279.454265 504 
L 279.454265 503.991643 
L 277.103966 503.991643 
z
" clip-path="url(#p158598c79b)" style="fill: #add8e6"/>
   </g>
   <g id="patch_63">
    <path d="M 279.454265 504 
L 281.804563 504 
L 281.804563 503.992286 
L 279.454265 503.992286 
z
" clip-path="url(#p158598c79b)" style="fill: #add8e6"/>
   </g>
   <g id="patch_64">
    <path d="M 281.804563 504 
L 284.154861 504 
L 284.154861 503.994857 
L 281.804563 503.994857 
z
" clip-path="url(#p158598c79b)" style="fill: #add8e6"/>
   </g>
   <g id="patch_65">
    <path d="M 284.154861 504 
L 286.50516 504 
L 286.50516 503.991 
L 284.154861 503.991 
z
" clip-path="url(#p158598c79b)" style="fill: #add8e6"/>
   </g>
   <g id="patch_66">
    <path d="M 286.50516 504 
L 288.855458 504 
L 288.855458 503.988428 
L 286.50516 503.988428 
z
" clip-path="url(#p158598c79b)" style="fill: #add8e6"/>
   </g>
   <g id="patch_67">
    <path d="M 288.855458 504 
L 291.205756 504 
L 291.205756 503.996143 
L 288.855458 503.996143 
z
" clip-path="url(#p158598c79b)" style="fill: #add8e6"/>
   </g>
   <g id="patch_68">
    <path d="M 291.205756 504 
L 293.556055 504 
L 293.556055 503.992928 
L 291.205756 503.992928 
z
" clip-path="url(#p158598c79b)" style="fill: #add8e6"/>
   </g>
   <g id="patch_69">
    <path d="M 293.556055 504 
L 295.906353 504 
L 295.906353 503.979428 
L 293.556055 503.979428 
z
" clip-path="url(#p158598c79b)" style="fill: #add8e6"/>
   </g>
   <g id="patch_70">
    <path d="M 295.906353 504 
L 298.256651 504 
L 298.256651 503.983285 
L 295.906353 503.983285 
z
" clip-path="url(#p158598c79b)" style="fill: #add8e6"/>
   </g>
   <g id="patch_71">
    <path d="M 298.256651 504 
L 300.60695 504 
L 300.60695 503.990357 
L 298.256651 503.990357 
z
" clip-path="url(#p158598c79b)" style="fill: #add8e6"/>
   </g>
   <g id="patch_72">
    <path d="M 300.60695 504 
L 302.957248 504 
L 302.957248 503.989071 
L 300.60695 503.989071 
z
" clip-path="url(#p158598c79b)" style="fill: #add8e6"/>
   </g>
   <g id="patch_73">
    <path d="M 302.957248 504 
L 305.307547 504 
L 305.307547 503.979428 
L 302.957248 503.979428 
z
" clip-path="url(#p158598c79b)" style="fill: #add8e6"/>
   </g>
   <g id="patch_74">
    <path d="M 305.307547 504 
L 307.657845 504 
L 307.657845 503.963357 
L 305.307547 503.963357 
z
" clip-path="url(#p158598c79b)" style="fill: #add8e6"/>
   </g>
   <g id="patch_75">
    <path d="M 307.657845 504 
L 310.008143 504 
L 310.008143 503.983285 
L 307.657845 503.983285 
z
" clip-path="url(#p158598c79b)" style="fill: #add8e6"/>
   </g>
   <g id="patch_76">
    <path d="M 310.008143 504 
L 312.358442 504 
L 312.358442 503.961428 
L 310.008143 503.961428 
z
" clip-path="url(#p158598c79b)" style="fill: #add8e6"/>
   </g>
   <g id="patch_77">
    <path d="M 312.358442 504 
L 314.70874 504 
L 314.70874 503.953071 
L 312.358442 503.953071 
z
" clip-path="url(#p158598c79b)" style="fill: #add8e6"/>
   </g>
   <g id="patch_78">
    <path d="M 314.70874 504 
L 317.059038 504 
L 317.059038 503.968499 
L 314.70874 503.968499 
z
" clip-path="url(#p158598c79b)" style="fill: #add8e6"/>
   </g>
   <g id="patch_79">
    <path d="M 317.059038 504 
L 319.409337 504 
L 319.409337 503.961428 
L 317.059038 503.961428 
z
" clip-path="url(#p158598c79b)" style="fill: #add8e6"/>
   </g>
   <g id="patch_80">
    <path d="M 319.409337 504 
L 321.759635 504 
L 321.759635 503.958856 
L 319.409337 503.958856 
z
" clip-path="url(#p158598c79b)" style="fill: #add8e6"/>
   </g>
   <g id="patch_81">
    <path d="M 321.759635 504 
L 324.109933 504 
L 324.109933 503.951142 
L 321.759635 503.951142 
z
" clip-path="url(#p158598c79b)" style="fill: #add8e6"/>
   </g>
   <g id="patch_82">
    <path d="M 324.109933 504 
L 326.460232 504 
L 326.460232 503.961428 
L 324.109933 503.961428 
z
" clip-path="url(#p158598c79b)" style="fill: #add8e6"/>
   </g>
   <g id="patch_83">
    <path d="M 326.460232 504 
L 328.81053 504 
L 328.81053 503.950499 
L 326.460232 503.950499 
z
" clip-path="url(#p158598c79b)" style="fill: #add8e6"/>
   </g>
   <g id="patch_84">
    <path d="M 328.81053 504 
L 331.160828 504 
L 331.160828 503.929927 
L 328.81053 503.929927 
z
" clip-path="url(#p158598c79b)" style="fill: #add8e6"/>
   </g>
   <g id="patch_85">
    <path d="M 331.160828 504 
L 333.511127 504 
L 333.511127 503.927356 
L 331.160828 503.927356 
z
" clip-path="url(#p158598c79b)" style="fill: #add8e6"/>
   </g>
   <g id="patch_86">
    <path d="M 333.511127 504 
L 335.861425 504 
L 335.861425 503.936356 
L 333.511127 503.936356 
z
" clip-path="url(#p158598c79b)" style="fill: #add8e6"/>
   </g>
   <g id="patch_87">
    <path d="M 335.861425 504 
L 338.211723 504 
L 338.211723 503.948571 
L 335.861425 503.948571 
z
" clip-path="url(#p158598c79b)" style="fill: #add8e6"/>
   </g>
   <g id="patch_88">
    <path d="M 338.211723 504 
L 340.562022 504 
L 340.562022 503.906141 
L 338.211723 503.906141 
z
" clip-path="url(#p158598c79b)" style="fill: #add8e6"/>
   </g>
   <g id="patch_89">
    <path d="M 340.562022 504 
L 342.91232 504 
L 342.91232 503.918356 
L 340.562022 503.918356 
z
" clip-path="url(#p158598c79b)" style="fill: #add8e6"/>
   </g>
   <g id="patch_90">
    <path d="M 342.91232 504 
L 345.262618 504 
L 345.262618 503.896498 
L 342.91232 503.896498 
z
" clip-path="url(#p158598c79b)" style="fill: #add8e6"/>
   </g>
   <g id="patch_91">
    <path d="M 345.262618 504 
L 347.612917 504 
L 347.612917 503.868855 
L 345.262618 503.868855 
z
" clip-path="url(#p158598c79b)" style="fill: #add8e6"/>
   </g>
   <g id="patch_92">
    <path d="M 347.612917 504 
L 349.963215 504 
L 349.963215 503.879141 
L 347.612917 503.879141 
z
" clip-path="url(#p158598c79b)" style="fill: #add8e6"/>
   </g>
   <g id="patch_93">
    <path d="M 349.963215 504 
L 352.313514 504 
L 352.313514 503.884284 
L 349.963215 503.884284 
z
" clip-path="url(#p158598c79b)" style="fill: #add8e6"/>
   </g>
   <g id="patch_94">
    <path d="M 352.313514 504 
L 354.663812 504 
L 354.663812 503.872069 
L 352.313514 503.872069 
z
" clip-path="url(#p158598c79b)" style="fill: #add8e6"/>
   </g>
   <g id="patch_95">
    <path d="M 354.663812 504 
L 357.01411 504 
L 357.01411 503.875284 
L 354.663812 503.875284 
z
" clip-path="url(#p158598c79b)" style="fill: #add8e6"/>
   </g>
   <g id="patch_96">
    <path d="M 357.01411 504 
L 359.364409 504 
L 359.364409 503.879141 
L 357.01411 503.879141 
z
" clip-path="url(#p158598c79b)" style="fill: #add8e6"/>
   </g>
   <g id="patch_97">
    <path d="M 359.364409 504 
L 361.714707 504 
L 361.714707 503.83414 
L 359.364409 503.83414 
z
" clip-path="url(#p158598c79b)" style="fill: #add8e6"/>
   </g>
   <g id="patch_98">
    <path d="M 361.714707 504 
L 364.065005 504 
L 364.065005 503.814854 
L 361.714707 503.814854 
z
" clip-path="url(#p158598c79b)" style="fill: #add8e6"/>
   </g>
   <g id="patch_99">
    <path d="M 364.065005 504 
L 366.415304 504 
L 366.415304 503.827711 
L 364.065005 503.827711 
z
" clip-path="url(#p158598c79b)" style="fill: #add8e6"/>
   </g>
   <g id="patch_100">
    <path d="M 366.415304 504 
L 368.765602 504 
L 368.765602 503.800068 
L 366.415304 503.800068 
z
" clip-path="url(#p158598c79b)" style="fill: #add8e6"/>
   </g>
   <g id="patch_101">
    <path d="M 368.765602 504 
L 371.1159 504 
L 371.1159 503.796854 
L 368.765602 503.796854 
z
" clip-path="url(#p158598c79b)" style="fill: #add8e6"/>
   </g>
   <g id="patch_102">
    <path d="M 371.1159 504 
L 373.466199 504 
L 373.466199 503.798782 
L 371.1159 503.798782 
z
" clip-path="url(#p158598c79b)" style="fill: #add8e6"/>
   </g>
   <g id="patch_103">
    <path d="M 373.466199 504 
L 375.816497 504 
L 375.816497 503.787211 
L 373.466199 503.787211 
z
" clip-path="url(#p158598c79b)" style="fill: #add8e6"/>
   </g>
   <g id="patch_104">
    <path d="M 375.816497 504 
L 378.166795 504 
L 378.166795 503.740281 
L 375.816497 503.740281 
z
" clip-path="url(#p158598c79b)" style="fill: #add8e6"/>
   </g>
   <g id="patch_105">
    <path d="M 378.166795 504 
L 380.517094 504 
L 380.517094 503.744139 
L 378.166795 503.744139 
z
" clip-path="url(#p158598c79b)" style="fill: #add8e6"/>
   </g>
   <g id="patch_106">
    <path d="M 380.517094 504 
L 382.867392 504 
L 382.867392 503.730638 
L 380.517094 503.730638 
z
" clip-path="url(#p158598c79b)" style="fill: #add8e6"/>
   </g>
   <g id="patch_107">
    <path d="M 382.867392 504 
L 385.21769 504 
L 385.21769 503.737067 
L 382.867392 503.737067 
z
" clip-path="url(#p158598c79b)" style="fill: #add8e6"/>
   </g>
   <g id="patch_108">
    <path d="M 385.21769 504 
L 387.567989 504 
L 387.567989 503.699781 
L 385.21769 503.699781 
z
" clip-path="url(#p158598c79b)" style="fill: #add8e6"/>
   </g>
   <g id="patch_109">
    <path d="M 387.567989 504 
L 389.918287 504 
L 389.918287 503.704924 
L 387.567989 503.704924 
z
" clip-path="url(#p158598c79b)" style="fill: #add8e6"/>
   </g>
   <g id="patch_110">
    <path d="M 389.918287 504 
L 392.268585 504 
L 392.268585 503.715852 
L 389.918287 503.715852 
z
" clip-path="url(#p158598c79b)" style="fill: #add8e6"/>
   </g>
   <g id="patch_111">
    <path d="M 392.268585 504 
L 394.618884 504 
L 394.618884 503.684352 
L 392.268585 503.684352 
z
" clip-path="url(#p158598c79b)" style="fill: #add8e6"/>
   </g>
   <g id="patch_112">
    <path d="M 394.618884 504 
L 396.969182 504 
L 396.969182 503.681138 
L 394.618884 503.681138 
z
" clip-path="url(#p158598c79b)" style="fill: #add8e6"/>
   </g>
   <g id="patch_113">
    <path d="M 396.969182 504 
L 399.319481 504 
L 399.319481 503.666352 
L 396.969182 503.666352 
z
" clip-path="url(#p158598c79b)" style="fill: #add8e6"/>
   </g>
   <g id="patch_114">
    <path d="M 399.319481 504 
L 401.669779 504 
L 401.669779 503.655423 
L 399.319481 503.655423 
z
" clip-path="url(#p158598c79b)" style="fill: #add8e6"/>
   </g>
   <g id="patch_115">
    <path d="M 401.669779 504 
L 404.020077 504 
L 404.020077 503.639994 
L 401.669779 503.639994 
z
" clip-path="url(#p158598c79b)" style="fill: #add8e6"/>
   </g>
   <g id="patch_116">
    <path d="M 404.020077 504 
L 406.370376 504 
L 406.370376 503.616851 
L 404.020077 503.616851 
z
" clip-path="url(#p158598c79b)" style="fill: #add8e6"/>
   </g>
   <g id="patch_117">
    <path d="M 406.370376 504 
L 408.720674 504 
L 408.720674 503.64578 
L 406.370376 503.64578 
z
" clip-path="url(#p158598c79b)" style="fill: #add8e6"/>
   </g>
   <g id="patch_118">
    <path d="M 408.720674 504 
L 411.070972 504 
L 411.070972 503.616208 
L 408.720674 503.616208 
z
" clip-path="url(#p158598c79b)" style="fill: #add8e6"/>
   </g>
   <g id="patch_119">
    <path d="M 411.070972 504 
L 413.421271 504 
L 413.421271 503.65478 
L 411.070972 503.65478 
z
" clip-path="url(#p158598c79b)" style="fill: #add8e6"/>
   </g>
   <g id="patch_120">
    <path d="M 413.421271 504 
L 415.771569 504 
L 415.771569 503.611065 
L 413.421271 503.611065 
z
" clip-path="url(#p158598c79b)" style="fill: #add8e6"/>
   </g>
   <g id="patch_121">
    <path d="M 415.771569 504 
L 418.121867 504 
L 418.121867 503.614922 
L 415.771569 503.614922 
z
" clip-path="url(#p158598c79b)" style="fill: #add8e6"/>
   </g>
   <g id="patch_122">
    <path d="M 418.121867 504 
L 420.472166 504 
L 420.472166 503.609779 
L 418.121867 503.609779 
z
" clip-path="url(#p158598c79b)" style="fill: #add8e6"/>
   </g>
   <g id="patch_123">
    <path d="M 420.472166 504 
L 422.822464 504 
L 422.822464 503.582136 
L 420.472166 503.582136 
z
" clip-path="url(#p158598c79b)" style="fill: #add8e6"/>
   </g>
   <g id="patch_124">
    <path d="M 422.822464 504 
L 425.172762 504 
L 425.172762 503.598851 
L 422.822464 503.598851 
z
" clip-path="url(#p158598c79b)" style="fill: #add8e6"/>
   </g>
   <g id="patch_125">
    <path d="M 425.172762 504 
L 427.523061 504 
L 427.523061 503.606565 
L 425.172762 503.606565 
z
" clip-path="url(#p158598c79b)" style="fill: #add8e6"/>
   </g>
   <g id="patch_126">
    <path d="M 427.523061 504 
L 429.873359 504 
L 429.873359 503.583422 
L 427.523061 503.583422 
z
" clip-path="url(#p158598c79b)" style="fill: #add8e6"/>
   </g>
   <g id="patch_127">
    <path d="M 429.873359 504 
L 432.223657 504 
L 432.223657 503.557707 
L 429.873359 503.557707 
z
" clip-path="url(#p158598c79b)" style="fill: #add8e6"/>
   </g>
   <g id="patch_128">
    <path d="M 432.223657 504 
L 434.573956 504 
L 434.573956 503.546135 
L 432.223657 503.546135 
z
" clip-path="url(#p158598c79b)" style="fill: #add8e6"/>
   </g>
   <g id="patch_129">
    <path d="M 434.573956 504 
L 436.924254 504 
L 436.924254 503.544207 
L 434.573956 503.544207 
z
" clip-path="url(#p158598c79b)" style="fill: #add8e6"/>
   </g>
   <g id="patch_130">
    <path d="M 436.924254 504 
L 439.274552 504 
L 439.274552 503.491492 
L 436.924254 503.491492 
z
" clip-path="url(#p158598c79b)" style="fill: #add8e6"/>
   </g>
   <g id="patch_131">
    <path d="M 439.274552 504 
L 441.624851 504 
L 441.624851 503.436205 
L 439.274552 503.436205 
z
" clip-path="url(#p158598c79b)" style="fill: #add8e6"/>
   </g>
   <g id="patch_132">
    <path d="M 441.624851 504 
L 443.975149 504 
L 443.975149 503.45742 
L 441.624851 503.45742 
z
" clip-path="url(#p158598c79b)" style="fill: #add8e6"/>
   </g>
   <g id="patch_133">
    <path d="M 443.975149 504 
L 446.325448 504 
L 446.325448 503.359704 
L 443.975149 503.359704 
z
" clip-path="url(#p158598c79b)" style="fill: #add8e6"/>
   </g>
   <g id="patch_134">
    <path d="M 446.325448 504 
L 448.675746 504 
L 448.675746 503.346203 
L 446.325448 503.346203 
z
" clip-path="url(#p158598c79b)" style="fill: #add8e6"/>
   </g>
   <g id="patch_135">
    <path d="M 448.675746 504 
L 451.026044 504 
L 451.026044 503.252345 
L 448.675746 503.252345 
z
" clip-path="url(#p158598c79b)" style="fill: #add8e6"/>
   </g>
   <g id="patch_136">
    <path d="M 451.026044 504 
L 453.376343 504 
L 453.376343 503.150129 
L 451.026044 503.150129 
z
" clip-path="url(#p158598c79b)" style="fill: #add8e6"/>
   </g>
   <g id="patch_137">
    <path d="M 453.376343 504 
L 455.726641 504 
L 455.726641 503.063985 
L 453.376343 503.063985 
z
" clip-path="url(#p158598c79b)" style="fill: #add8e6"/>
   </g>
   <g id="patch_138">
    <path d="M 455.726641 504 
L 458.076939 504 
L 458.076939 503.053699 
L 455.726641 503.053699 
z
" clip-path="url(#p158598c79b)" style="fill: #add8e6"/>
   </g>
   <g id="patch_139">
    <path d="M 458.076939 504 
L 460.427238 504 
L 460.427238 502.695621 
L 458.076939 502.695621 
z
" clip-path="url(#p158598c79b)" style="fill: #add8e6"/>
   </g>
   <g id="patch_140">
    <path d="M 460.427238 504 
L 462.777536 504 
L 462.777536 502.476403 
L 460.427238 502.476403 
z
" clip-path="url(#p158598c79b)" style="fill: #add8e6"/>
   </g>
   <g id="patch_141">
    <path d="M 462.777536 504 
L 465.127834 504 
L 465.127834 502.302829 
L 462.777536 502.302829 
z
" clip-path="url(#p158598c79b)" style="fill: #add8e6"/>
   </g>
   <g id="patch_142">
    <path d="M 465.127834 504 
L 467.478133 504 
L 467.478133 502.16847 
L 465.127834 502.16847 
z
" clip-path="url(#p158598c79b)" style="fill: #add8e6"/>
   </g>
   <g id="patch_143">
    <path d="M 467.478133 504 
L 469.828431 504 
L 469.828431 501.677962 
L 467.478133 501.677962 
z
" clip-path="url(#p158598c79b)" style="fill: #add8e6"/>
   </g>
   <g id="patch_144">
    <path d="M 469.828431 504 
L 472.178729 504 
L 472.178729 501.366814 
L 469.828431 501.366814 
z
" clip-path="url(#p158598c79b)" style="fill: #add8e6"/>
   </g>
   <g id="patch_145">
    <path d="M 472.178729 504 
L 474.529028 504 
L 474.529028 501.154024 
L 472.178729 501.154024 
z
" clip-path="url(#p158598c79b)" style="fill: #add8e6"/>
   </g>
   <g id="patch_146">
    <path d="M 474.529028 504 
L 476.879326 504 
L 476.879326 500.945735 
L 474.529028 500.945735 
z
" clip-path="url(#p158598c79b)" style="fill: #add8e6"/>
   </g>
   <g id="patch_147">
    <path d="M 476.879326 504 
L 479.229624 504 
L 479.229624 500.449441 
L 476.879326 500.449441 
z
" clip-path="url(#p158598c79b)" style="fill: #add8e6"/>
   </g>
   <g id="patch_148">
    <path d="M 479.229624 504 
L 481.579923 504 
L 481.579923 499.944147 
L 479.229624 499.944147 
z
" clip-path="url(#p158598c79b)" style="fill: #add8e6"/>
   </g>
   <g id="patch_149">
    <path d="M 481.579923 504 
L 483.930221 504 
L 483.930221 499.84386 
L 481.579923 499.84386 
z
" clip-path="url(#p158598c79b)" style="fill: #add8e6"/>
   </g>
   <g id="patch_150">
    <path d="M 483.930221 504 
L 486.280519 504 
L 486.280519 499.412495 
L 483.930221 499.412495 
z
" clip-path="url(#p158598c79b)" style="fill: #add8e6"/>
   </g>
   <g id="patch_151">
    <path d="M 486.280519 504 
L 488.630818 504 
L 488.630818 498.959917 
L 486.280519 498.959917 
z
" clip-path="url(#p158598c79b)" style="fill: #add8e6"/>
   </g>
   <g id="patch_152">
    <path d="M 488.630818 504 
L 490.981116 504 
L 490.981116 498.508623 
L 488.630818 498.508623 
z
" clip-path="url(#p158598c79b)" style="fill: #add8e6"/>
   </g>
   <g id="patch_153">
    <path d="M 490.981116 504 
L 493.331415 504 
L 493.331415 498.72077 
L 490.981116 498.72077 
z
" clip-path="url(#p158598c79b)" style="fill: #add8e6"/>
   </g>
   <g id="patch_154">
    <path d="M 493.331415 504 
L 495.681713 504 
L 495.681713 498.347906 
L 493.331415 498.347906 
z
" clip-path="url(#p158598c79b)" style="fill: #add8e6"/>
   </g>
   <g id="patch_155">
    <path d="M 495.681713 504 
L 498.032011 504 
L 498.032011 498.098474 
L 495.681713 498.098474 
z
" clip-path="url(#p158598c79b)" style="fill: #add8e6"/>
   </g>
   <g id="patch_156">
    <path d="M 498.032011 504 
L 500.38231 504 
L 500.38231 497.942257 
L 498.032011 497.942257 
z
" clip-path="url(#p158598c79b)" style="fill: #add8e6"/>
   </g>
   <g id="patch_157">
    <path d="M 500.38231 504 
L 502.732608 504 
L 502.732608 497.457535 
L 500.38231 497.457535 
z
" clip-path="url(#p158598c79b)" style="fill: #add8e6"/>
   </g>
   <g id="patch_158">
    <path d="M 502.732608 504 
L 505.082906 504 
L 505.082906 497.591251 
L 502.732608 497.591251 
z
" clip-path="url(#p158598c79b)" style="fill: #add8e6"/>
   </g>
   <g id="patch_159">
    <path d="M 505.082906 504 
L 507.433205 504 
L 507.433205 497.664538 
L 505.082906 497.664538 
z
" clip-path="url(#p158598c79b)" style="fill: #add8e6"/>
   </g>
   <g id="patch_160">
    <path d="M 507.433205 504 
L 509.783503 504 
L 509.783503 497.024885 
L 507.433205 497.024885 
z
" clip-path="url(#p158598c79b)" style="fill: #add8e6"/>
   </g>
   <g id="patch_161">
    <path d="M 509.783503 504 
L 512.133801 504 
L 512.133801 496.702808 
L 509.783503 496.702808 
z
" clip-path="url(#p158598c79b)" style="fill: #add8e6"/>
   </g>
   <g id="patch_162">
    <path d="M 512.133801 504 
L 514.4841 504 
L 514.4841 496.574234 
L 512.133801 496.574234 
z
" clip-path="url(#p158598c79b)" style="fill: #add8e6"/>
   </g>
   <g id="patch_163">
    <path d="M 514.4841 504 
L 516.834398 504 
L 516.834398 496.164085 
L 514.4841 496.164085 
z
" clip-path="url(#p158598c79b)" style="fill: #add8e6"/>
   </g>
   <g id="patch_164">
    <path d="M 516.834398 504 
L 519.184696 504 
L 519.184696 495.685791 
L 516.834398 495.685791 
z
" clip-path="url(#p158598c79b)" style="fill: #add8e6"/>
   </g>
   <g id="patch_165">
    <path d="M 519.184696 504 
L 521.534995 504 
L 521.534995 495.441501 
L 519.184696 495.441501 
z
" clip-path="url(#p158598c79b)" style="fill: #add8e6"/>
   </g>
   <g id="patch_166">
    <path d="M 521.534995 504 
L 523.885293 504 
L 523.885293 494.603844 
L 521.534995 494.603844 
z
" clip-path="url(#p158598c79b)" style="fill: #add8e6"/>
   </g>
   <g id="patch_167">
    <path d="M 523.885293 504 
L 526.235591 504 
L 526.235591 493.879975 
L 523.885293 493.879975 
z
" clip-path="url(#p158598c79b)" style="fill: #add8e6"/>
   </g>
   <g id="patch_168">
    <path d="M 526.235591 504 
L 528.58589 504 
L 528.58589 493.586185 
L 526.235591 493.586185 
z
" clip-path="url(#p158598c79b)" style="fill: #add8e6"/>
   </g>
   <g id="patch_169">
    <path d="M 528.58589 504 
L 530.936188 504 
L 530.936188 492.571739 
L 528.58589 492.571739 
z
" clip-path="url(#p158598c79b)" style="fill: #add8e6"/>
   </g>
   <g id="patch_170">
    <path d="M 530.936188 504 
L 533.286486 504 
L 533.286486 491.936586 
L 530.936188 491.936586 
z
" clip-path="url(#p158598c79b)" style="fill: #add8e6"/>
   </g>
   <g id="patch_171">
    <path d="M 533.286486 504 
L 535.636785 504 
L 535.636785 490.873283 
L 533.286486 490.873283 
z
" clip-path="url(#p158598c79b)" style="fill: #add8e6"/>
   </g>
   <g id="patch_172">
    <path d="M 535.636785 504 
L 537.987083 504 
L 537.987083 489.712263 
L 535.636785 489.712263 
z
" clip-path="url(#p158598c79b)" style="fill: #add8e6"/>
   </g>
   <g id="patch_173">
    <path d="M 537.987083 504 
L 540.337382 504 
L 540.337382 488.755676 
L 537.987083 488.755676 
z
" clip-path="url(#p158598c79b)" style="fill: #add8e6"/>
   </g>
   <g id="patch_174">
    <path d="M 540.337382 504 
L 542.68768 504 
L 542.68768 487.288009 
L 540.337382 487.288009 
z
" clip-path="url(#p158598c79b)" style="fill: #add8e6"/>
   </g>
   <g id="patch_175">
    <path d="M 542.68768 504 
L 545.037978 504 
L 545.037978 486.393137 
L 542.68768 486.393137 
z
" clip-path="url(#p158598c79b)" style="fill: #add8e6"/>
   </g>
   <g id="patch_176">
    <path d="M 545.037978 504 
L 547.388277 504 
L 547.388277 485.058544 
L 545.037978 485.058544 
z
" clip-path="url(#p158598c79b)" style="fill: #add8e6"/>
   </g>
   <g id="patch_177">
    <path d="M 547.388277 504 
L 549.738575 504 
L 549.738575 483.548447 
L 547.388277 483.548447 
z
" clip-path="url(#p158598c79b)" style="fill: #add8e6"/>
   </g>
   <g id="patch_178">
    <path d="M 549.738575 504 
L 552.088873 504 
L 552.088873 481.734274 
L 549.738575 481.734274 
z
" clip-path="url(#p158598c79b)" style="fill: #add8e6"/>
   </g>
   <g id="patch_179">
    <path d="M 552.088873 504 
L 554.439172 504 
L 554.439172 480.030032 
L 552.088873 480.030032 
z
" clip-path="url(#p158598c79b)" style="fill: #add8e6"/>
   </g>
   <g id="patch_180">
    <path d="M 554.439172 504 
L 556.78947 504 
L 556.78947 478.019784 
L 554.439172 478.019784 
z
" clip-path="url(#p158598c79b)" style="fill: #add8e6"/>
   </g>
   <g id="patch_181">
    <path d="M 556.78947 504 
L 559.139768 504 
L 559.139768 475.912464 
L 556.78947 475.912464 
z
" clip-path="url(#p158598c79b)" style="fill: #add8e6"/>
   </g>
   <g id="patch_182">
    <path d="M 559.139768 504 
L 561.490067 504 
L 561.490067 473.714499 
L 559.139768 473.714499 
z
" clip-path="url(#p158598c79b)" style="fill: #add8e6"/>
   </g>
   <g id="patch_183">
    <path d="M 561.490067 504 
L 563.840365 504 
L 563.840365 471.629678 
L 561.490067 471.629678 
z
" clip-path="url(#p158598c79b)" style="fill: #add8e6"/>
   </g>
   <g id="patch_184">
    <path d="M 563.840365 504 
L 566.190663 504 
L 566.190663 469.253639 
L 563.840365 469.253639 
z
" clip-path="url(#p158598c79b)" style="fill: #add8e6"/>
   </g>
   <g id="patch_185">
    <path d="M 566.190663 504 
L 568.540962 504 
L 568.540962 466.728454 
L 566.190663 466.728454 
z
" clip-path="url(#p158598c79b)" style="fill: #add8e6"/>
   </g>
   <g id="patch_186">
    <path d="M 568.540962 504 
L 570.89126 504 
L 570.89126 464.178841 
L 568.540962 464.178841 
z
" clip-path="url(#p158598c79b)" style="fill: #add8e6"/>
   </g>
   <g id="patch_187">
    <path d="M 570.89126 504 
L 573.241558 504 
L 573.241558 460.685497 
L 570.89126 460.685497 
z
" clip-path="url(#p158598c79b)" style="fill: #add8e6"/>
   </g>
   <g id="patch_188">
    <path d="M 573.241558 504 
L 575.591857 504 
L 575.591857 456.722217 
L 573.241558 456.722217 
z
" clip-path="url(#p158598c79b)" style="fill: #add8e6"/>
   </g>
   <g id="patch_189">
    <path d="M 575.591857 504 
L 577.942155 504 
L 577.942155 453.434591 
L 575.591857 453.434591 
z
" clip-path="url(#p158598c79b)" style="fill: #add8e6"/>
   </g>
   <g id="patch_190">
    <path d="M 577.942155 504 
L 580.292453 504 
L 580.292453 449.176878 
L 577.942155 449.176878 
z
" clip-path="url(#p158598c79b)" style="fill: #add8e6"/>
   </g>
   <g id="patch_191">
    <path d="M 580.292453 504 
L 582.642752 504 
L 582.642752 444.492943 
L 580.292453 444.492943 
z
" clip-path="url(#p158598c79b)" style="fill: #add8e6"/>
   </g>
   <g id="patch_192">
    <path d="M 582.642752 504 
L 584.99305 504 
L 584.99305 440.664023 
L 582.642752 440.664023 
z
" clip-path="url(#p158598c79b)" style="fill: #add8e6"/>
   </g>
   <g id="patch_193">
    <path d="M 584.99305 504 
L 587.343349 504 
L 587.343349 435.002929 
L 584.99305 435.002929 
z
" clip-path="url(#p158598c79b)" style="fill: #add8e6"/>
   </g>
   <g id="patch_194">
    <path d="M 587.343349 504 
L 589.693647 504 
L 589.693647 429.614411 
L 587.343349 429.614411 
z
" clip-path="url(#p158598c79b)" style="fill: #add8e6"/>
   </g>
   <g id="patch_195">
    <path d="M 589.693647 504 
L 592.043945 504 
L 592.043945 423.819601 
L 589.693647 423.819601 
z
" clip-path="url(#p158598c79b)" style="fill: #add8e6"/>
   </g>
   <g id="patch_196">
    <path d="M 592.043945 504 
L 594.394244 504 
L 594.394244 418.067863 
L 592.043945 418.067863 
z
" clip-path="url(#p158598c79b)" style="fill: #add8e6"/>
   </g>
   <g id="patch_197">
    <path d="M 594.394244 504 
L 596.744542 504 
L 596.744542 411.463039 
L 594.394244 411.463039 
z
" clip-path="url(#p158598c79b)" style="fill: #add8e6"/>
   </g>
   <g id="patch_198">
    <path d="M 596.744542 504 
L 599.09484 504 
L 599.09484 404.59014 
L 596.744542 404.59014 
z
" clip-path="url(#p158598c79b)" style="fill: #add8e6"/>
   </g>
   <g id="patch_199">
    <path d="M 599.09484 504 
L 601.445139 504 
L 601.445139 396.67708 
L 599.09484 396.67708 
z
" clip-path="url(#p158598c79b)" style="fill: #add8e6"/>
   </g>
   <g id="patch_200">
    <path d="M 601.445139 504 
L 603.795437 504 
L 603.795437 389.725751 
L 601.445139 389.725751 
z
" clip-path="url(#p158598c79b)" style="fill: #add8e6"/>
   </g>
   <g id="patch_201">
    <path d="M 603.795437 504 
L 606.145735 504 
L 606.145735 381.375541 
L 603.795437 381.375541 
z
" clip-path="url(#p158598c79b)" style="fill: #add8e6"/>
   </g>
   <g id="patch_202">
    <path d="M 606.145735 504 
L 608.496034 504 
L 608.496034 372.218532 
L 606.145735 372.218532 
z
" clip-path="url(#p158598c79b)" style="fill: #add8e6"/>
   </g>
   <g id="patch_203">
    <path d="M 608.496034 504 
L 610.846332 504 
L 610.846332 361.214565 
L 608.496034 361.214565 
z
" clip-path="url(#p158598c79b)" style="fill: #add8e6"/>
   </g>
   <g id="patch_204">
    <path d="M 610.846332 504 
L 613.19663 504 
L 613.19663 350.169453 
L 610.846332 350.169453 
z
" clip-path="url(#p158598c79b)" style="fill: #add8e6"/>
   </g>
   <g id="patch_205">
    <path d="M 613.19663 504 
L 615.546929 504 
L 615.546929 337.733819 
L 613.19663 337.733819 
z
" clip-path="url(#p158598c79b)" style="fill: #add8e6"/>
   </g>
   <g id="patch_206">
    <path d="M 615.546929 504 
L 617.897227 504 
L 617.897227 324.880963 
L 615.546929 324.880963 
z
" clip-path="url(#p158598c79b)" style="fill: #add8e6"/>
   </g>
   <g id="patch_207">
    <path d="M 617.897227 504 
L 620.247525 504 
L 620.247525 311.036162 
L 617.897227 311.036162 
z
" clip-path="url(#p158598c79b)" style="fill: #add8e6"/>
   </g>
   <g id="patch_208">
    <path d="M 620.247525 504 
L 622.597824 504 
L 622.597824 296.413492 
L 620.247525 296.413492 
z
" clip-path="url(#p158598c79b)" style="fill: #add8e6"/>
   </g>
   <g id="patch_209">
    <path d="M 622.597824 504 
L 624.948122 504 
L 624.948122 280.497371 
L 622.597824 280.497371 
z
" clip-path="url(#p158598c79b)" style="fill: #add8e6"/>
   </g>
   <g id="patch_210">
    <path d="M 624.948122 504 
L 627.29842 504 
L 627.29842 263.953811 
L 624.948122 263.953811 
z
" clip-path="url(#p158598c79b)" style="fill: #add8e6"/>
   </g>
   <g id="patch_211">
    <path d="M 627.29842 504 
L 629.648719 504 
L 629.648719 246.615667 
L 627.29842 246.615667 
z
" clip-path="url(#p158598c79b)" style="fill: #add8e6"/>
   </g>
   <g id="patch_212">
    <path d="M 629.648719 504 
L 631.999017 504 
L 631.999017 229.021019 
L 629.648719 229.021019 
z
" clip-path="url(#p158598c79b)" style="fill: #add8e6"/>
   </g>
   <g id="patch_213">
    <path d="M 631.999017 504 
L 634.349316 504 
L 634.349316 211.198152 
L 631.999017 211.198152 
z
" clip-path="url(#p158598c79b)" style="fill: #add8e6"/>
   </g>
   <g id="patch_214">
    <path d="M 634.349316 504 
L 636.699614 504 
L 636.699614 192.956136 
L 634.349316 192.956136 
z
" clip-path="url(#p158598c79b)" style="fill: #add8e6"/>
   </g>
   <g id="patch_215">
    <path d="M 636.699614 504 
L 639.049912 504 
L 639.049912 175.261843 
L 636.699614 175.261843 
z
" clip-path="url(#p158598c79b)" style="fill: #add8e6"/>
   </g>
   <g id="patch_216">
    <path d="M 639.049912 504 
L 641.400211 504 
L 641.400211 159.163148 
L 639.049912 159.163148 
z
" clip-path="url(#p158598c79b)" style="fill: #add8e6"/>
   </g>
   <g id="patch_217">
    <path d="M 641.400211 504 
L 643.750509 504 
L 643.750509 141.931077 
L 641.400211 141.931077 
z
" clip-path="url(#p158598c79b)" style="fill: #add8e6"/>
   </g>
   <g id="patch_218">
    <path d="M 643.750509 504 
L 646.100807 504 
L 646.100807 126.830755 
L 643.750509 126.830755 
z
" clip-path="url(#p158598c79b)" style="fill: #add8e6"/>
   </g>
   <g id="patch_219">
    <path d="M 646.100807 504 
L 648.451106 504 
L 648.451106 115.248207 
L 646.100807 115.248207 
z
" clip-path="url(#p158598c79b)" style="fill: #add8e6"/>
   </g>
   <g id="patch_220">
    <path d="M 648.451106 504 
L 650.801404 504 
L 650.801404 103.461226 
L 648.451106 103.461226 
z
" clip-path="url(#p158598c79b)" style="fill: #add8e6"/>
   </g>
   <g id="patch_221">
    <path d="M 650.801404 504 
L 653.151702 504 
L 653.151702 97.629772 
L 650.801404 97.629772 
z
" clip-path="url(#p158598c79b)" style="fill: #add8e6"/>
   </g>
   <g id="patch_222">
    <path d="M 653.151702 504 
L 655.502001 504 
L 655.502001 91.631816 
L 653.151702 91.631816 
z
" clip-path="url(#p158598c79b)" style="fill: #add8e6"/>
   </g>
   <g id="patch_223">
    <path d="M 655.502001 504 
L 657.852299 504 
L 657.852299 89.828571 
L 655.502001 89.828571 
z
" clip-path="url(#p158598c79b)" style="fill: #add8e6"/>
   </g>
   <g id="patch_224">
    <path d="M 657.852299 504 
L 660.202597 504 
L 660.202597 92.427686 
L 657.852299 92.427686 
z
" clip-path="url(#p158598c79b)" style="fill: #add8e6"/>
   </g>
   <g id="patch_225">
    <path d="M 660.202597 504 
L 662.552896 504 
L 662.552896 97.389982 
L 660.202597 97.389982 
z
" clip-path="url(#p158598c79b)" style="fill: #add8e6"/>
   </g>
   <g id="patch_226">
    <path d="M 662.552896 504 
L 664.903194 504 
L 664.903194 108.98346 
L 662.552896 108.98346 
z
" clip-path="url(#p158598c79b)" style="fill: #add8e6"/>
   </g>
   <g id="patch_227">
    <path d="M 664.903194 504 
L 667.253492 504 
L 667.253492 124.247713 
L 664.903194 124.247713 
z
" clip-path="url(#p158598c79b)" style="fill: #add8e6"/>
   </g>
   <g id="patch_228">
    <path d="M 667.253492 504 
L 669.603791 504 
L 669.603791 145.696354 
L 667.253492 145.696354 
z
" clip-path="url(#p158598c79b)" style="fill: #add8e6"/>
   </g>
   <g id="patch_229">
    <path d="M 669.603791 504 
L 671.954089 504 
L 671.954089 172.651157 
L 669.603791 172.651157 
z
" clip-path="url(#p158598c79b)" style="fill: #add8e6"/>
   </g>
   <g id="patch_230">
    <path d="M 671.954089 504 
L 674.304388 504 
L 674.304388 202.846014 
L 671.954089 202.846014 
z
" clip-path="url(#p158598c79b)" style="fill: #add8e6"/>
   </g>
   <g id="patch_231">
    <path d="M 674.304388 504 
L 676.654686 504 
L 676.654686 238.248743 
L 674.304388 238.248743 
z
" clip-path="url(#p158598c79b)" style="fill: #add8e6"/>
   </g>
   <g id="patch_232">
    <path d="M 676.654686 504 
L 679.004984 504 
L 679.004984 276.255087 
L 676.654686 276.255087 
z
" clip-path="url(#p158598c79b)" style="fill: #add8e6"/>
   </g>
   <g id="patch_233">
    <path d="M 679.004984 504 
L 681.355283 504 
L 681.355283 315.31959 
L 679.004984 315.31959 
z
" clip-path="url(#p158598c79b)" style="fill: #add8e6"/>
   </g>
   <g id="patch_234">
    <path d="M 681.355283 504 
L 683.705581 504 
L 683.705581 353.129859 
L 681.355283 353.129859 
z
" clip-path="url(#p158598c79b)" style="fill: #add8e6"/>
   </g>
   <g id="patch_235">
    <path d="M 683.705581 504 
L 686.055879 504 
L 686.055879 387.574715 
L 683.705581 387.574715 
z
" clip-path="url(#p158598c79b)" style="fill: #add8e6"/>
   </g>
   <g id="patch_236">
    <path d="M 686.055879 504 
L 688.406178 504 
L 688.406178 418.637444 
L 686.055879 418.637444 
z
" clip-path="url(#p158598c79b)" style="fill: #add8e6"/>
   </g>
   <g id="patch_237">
    <path d="M 688.406178 504 
L 690.756476 504 
L 690.756476 444.251225 
L 688.406178 444.251225 
z
" clip-path="url(#p158598c79b)" style="fill: #add8e6"/>
   </g>
   <g id="patch_238">
    <path d="M 690.756476 504 
L 693.106774 504 
L 693.106774 464.867352 
L 690.756476 464.867352 
z
" clip-path="url(#p158598c79b)" style="fill: #add8e6"/>
   </g>
   <g id="patch_239">
    <path d="M 693.106774 504 
L 695.457073 504 
L 695.457073 479.191089 
L 693.106774 479.191089 
z
" clip-path="url(#p158598c79b)" style="fill: #add8e6"/>
   </g>
   <g id="patch_240">
    <path d="M 695.457073 504 
L 697.807371 504 
L 697.807371 489.204398 
L 695.457073 489.204398 
z
" clip-path="url(#p158598c79b)" style="fill: #add8e6"/>
   </g>
   <g id="patch_241">
    <path d="M 697.807371 504 
L 700.157669 504 
L 700.157669 495.621504 
L 697.807371 495.621504 
z
" clip-path="url(#p158598c79b)" style="fill: #add8e6"/>
   </g>
   <g id="patch_242">
    <path d="M 700.157669 504 
L 702.507968 504 
L 702.507968 499.132205 
L 700.157669 499.132205 
z
" clip-path="url(#p158598c79b)" style="fill: #add8e6"/>
   </g>
   <g id="patch_243">
    <path d="M 702.507968 504 
L 704.858266 504 
L 704.858266 501.192596 
L 702.507968 501.192596 
z
" clip-path="url(#p158598c79b)" style="fill: #add8e6"/>
   </g>
   <g id="patch_244">
    <path d="M 704.858266 504 
L 707.208564 504 
L 707.208564 502.313115 
L 704.858266 502.313115 
z
" clip-path="url(#p158598c79b)" style="fill: #add8e6"/>
   </g>
   <g id="patch_245">
    <path d="M 707.208564 504 
L 709.558863 504 
L 709.558863 502.94184 
L 707.208564 502.94184 
z
" clip-path="url(#p158598c79b)" style="fill: #add8e6"/>
   </g>
   <g id="patch_246">
    <path d="M 709.558863 504 
L 711.909161 504 
L 711.909161 503.281274 
L 709.558863 503.281274 
z
" clip-path="url(#p158598c79b)" style="fill: #add8e6"/>
   </g>
   <g id="patch_247">
    <path d="M 711.909161 504 
L 714.259459 504 
L 714.259459 503.618779 
L 711.909161 503.618779 
z
" clip-path="url(#p158598c79b)" style="fill: #add8e6"/>
   </g>
   <g id="patch_248">
    <path d="M 714.259459 504 
L 716.609758 504 
L 716.609758 503.71971 
L 714.259459 503.71971 
z
" clip-path="url(#p158598c79b)" style="fill: #add8e6"/>
   </g>
   <g id="patch_249">
    <path d="M 716.609758 504 
L 718.960056 504 
L 718.960056 503.835426 
L 716.609758 503.835426 
z
" clip-path="url(#p158598c79b)" style="fill: #add8e6"/>
   </g>
   <g id="patch_250">
    <path d="M 718.960056 504 
L 721.310355 504 
L 721.310355 503.860498 
L 718.960056 503.860498 
z
" clip-path="url(#p158598c79b)" style="fill: #add8e6"/>
   </g>
   <g id="patch_251">
    <path d="M 721.310355 504 
L 723.660653 504 
L 723.660653 503.906141 
L 721.310355 503.906141 
z
" clip-path="url(#p158598c79b)" style="fill: #add8e6"/>
   </g>
   <g id="patch_252">
    <path d="M 723.660653 504 
L 726.010951 504 
L 726.010951 503.503706 
L 723.660653 503.503706 
z
" clip-path="url(#p158598c79b)" style="fill: #add8e6"/>
   </g>
   <g id="patch_253">
    <path d="M 726.010951 504 
L 728.36125 504 
L 728.36125 504 
L 726.010951 504 
z
" clip-path="url(#p158598c79b)" style="fill: #add8e6"/>
   </g>
   <g id="patch_254">
    <path d="M 728.36125 504 
L 730.711548 504 
L 730.711548 504 
L 728.36125 504 
z
" clip-path="url(#p158598c79b)" style="fill: #add8e6"/>
   </g>
   <g id="patch_255">
    <path d="M 730.711548 504 
L 733.061846 504 
L 733.061846 504 
L 730.711548 504 
z
" clip-path="url(#p158598c79b)" style="fill: #add8e6"/>
   </g>
   <g id="patch_256">
    <path d="M 733.061846 504 
L 735.412145 504 
L 735.412145 504 
L 733.061846 504 
z
" clip-path="url(#p158598c79b)" style="fill: #add8e6"/>
   </g>
   <g id="patch_257">
    <path d="M 735.412145 504 
L 737.762443 504 
L 737.762443 504 
L 735.412145 504 
z
" clip-path="url(#p158598c79b)" style="fill: #add8e6"/>
   </g>
   <g id="patch_258">
    <path d="M 737.762443 504 
L 740.112741 504 
L 740.112741 504 
L 737.762443 504 
z
" clip-path="url(#p158598c79b)" style="fill: #add8e6"/>
   </g>
   <g id="patch_259">
    <path d="M 740.112741 504 
L 742.46304 504 
L 742.46304 504 
L 740.112741 504 
z
" clip-path="url(#p158598c79b)" style="fill: #add8e6"/>
   </g>
   <g id="patch_260">
    <path d="M 742.46304 504 
L 744.813338 504 
L 744.813338 504 
L 742.46304 504 
z
" clip-path="url(#p158598c79b)" style="fill: #add8e6"/>
   </g>
   <g id="patch_261">
    <path d="M 744.813338 504 
L 747.163636 504 
L 747.163636 504 
L 744.813338 504 
z
" clip-path="url(#p158598c79b)" style="fill: #add8e6"/>
   </g>
   <g id="matplotlib.axis_1">
    <g id="xtick_1">
     <g id="line2d_1">
      <path d="M 138.436364 504 
L 138.436364 69.12 
" clip-path="url(#p158598c79b)" style="fill: none; stroke: #d3d3d3; stroke-width: 0.8; stroke-linecap: square"/>
     </g>
     <g id="line2d_2">
      <defs>
       <path id="mc430da2ddb" d="M 0 0 
L 0 3.5 
" style="stroke: #000000; stroke-width: 0.8"/>
      </defs>
      <g>
       <use xlink:href="#mc430da2ddb" x="138.436364" y="504" style="stroke: #000000; stroke-width: 0.8"/>
      </g>
     </g>
     <g id="text_1">
      <!-- 0.75 -->
      <g transform="translate(127.303551 518.598438)scale(0.1 -0.1)">
       <defs>
        <path id="DejaVuSans-30" d="M 2034 4250 
Q 1547 4250 1301 3770 
Q 1056 3291 1056 2328 
Q 1056 1369 1301 889 
Q 1547 409 2034 409 
Q 2525 409 2770 889 
Q 3016 1369 3016 2328 
Q 3016 3291 2770 3770 
Q 2525 4250 2034 4250 
z
M 2034 4750 
Q 2819 4750 3233 4129 
Q 3647 3509 3647 2328 
Q 3647 1150 3233 529 
Q 2819 -91 2034 -91 
Q 1250 -91 836 529 
Q 422 1150 422 2328 
Q 422 3509 836 4129 
Q 1250 4750 2034 4750 
z
" transform="scale(0.015625)"/>
        <path id="DejaVuSans-2e" d="M 684 794 
L 1344 794 
L 1344 0 
L 684 0 
L 684 794 
z
" transform="scale(0.015625)"/>
        <path id="DejaVuSans-37" d="M 525 4666 
L 3525 4666 
L 3525 4397 
L 1831 0 
L 1172 0 
L 2766 4134 
L 525 4134 
L 525 4666 
z
" transform="scale(0.015625)"/>
        <path id="DejaVuSans-35" d="M 691 4666 
L 3169 4666 
L 3169 4134 
L 1269 4134 
L 1269 2991 
Q 1406 3038 1543 3061 
Q 1681 3084 1819 3084 
Q 2600 3084 3056 2656 
Q 3513 2228 3513 1497 
Q 3513 744 3044 326 
Q 2575 -91 1722 -91 
Q 1428 -91 1123 -41 
Q 819 9 494 109 
L 494 744 
Q 775 591 1075 516 
Q 1375 441 1709 441 
Q 2250 441 2565 725 
Q 2881 1009 2881 1497 
Q 2881 1984 2565 2268 
Q 2250 2553 1709 2553 
Q 1456 2553 1204 2497 
Q 953 2441 691 2322 
L 691 4666 
z
" transform="scale(0.015625)"/>
       </defs>
       <use xlink:href="#DejaVuSans-30"/>
       <use xlink:href="#DejaVuSans-2e" x="63.623047"/>
       <use xlink:href="#DejaVuSans-37" x="95.410156"/>
       <use xlink:href="#DejaVuSans-35" x="159.033203"/>
      </g>
     </g>
    </g>
    <g id="xtick_2">
     <g id="line2d_3">
      <path d="M 255.951281 504 
L 255.951281 69.12 
" clip-path="url(#p158598c79b)" style="fill: none; stroke: #d3d3d3; stroke-width: 0.8; stroke-linecap: square"/>
     </g>
     <g id="line2d_4">
      <g>
       <use xlink:href="#mc430da2ddb" x="255.951281" y="504" style="stroke: #000000; stroke-width: 0.8"/>
      </g>
     </g>
     <g id="text_2">
      <!-- 0.80 -->
      <g transform="translate(244.818469 518.598438)scale(0.1 -0.1)">
       <defs>
        <path id="DejaVuSans-38" d="M 2034 2216 
Q 1584 2216 1326 1975 
Q 1069 1734 1069 1313 
Q 1069 891 1326 650 
Q 1584 409 2034 409 
Q 2484 409 2743 651 
Q 3003 894 3003 1313 
Q 3003 1734 2745 1975 
Q 2488 2216 2034 2216 
z
M 1403 2484 
Q 997 2584 770 2862 
Q 544 3141 544 3541 
Q 544 4100 942 4425 
Q 1341 4750 2034 4750 
Q 2731 4750 3128 4425 
Q 3525 4100 3525 3541 
Q 3525 3141 3298 2862 
Q 3072 2584 2669 2484 
Q 3125 2378 3379 2068 
Q 3634 1759 3634 1313 
Q 3634 634 3220 271 
Q 2806 -91 2034 -91 
Q 1263 -91 848 271 
Q 434 634 434 1313 
Q 434 1759 690 2068 
Q 947 2378 1403 2484 
z
M 1172 3481 
Q 1172 3119 1398 2916 
Q 1625 2713 2034 2713 
Q 2441 2713 2670 2916 
Q 2900 3119 2900 3481 
Q 2900 3844 2670 4047 
Q 2441 4250 2034 4250 
Q 1625 4250 1398 4047 
Q 1172 3844 1172 3481 
z
" transform="scale(0.015625)"/>
       </defs>
       <use xlink:href="#DejaVuSans-30"/>
       <use xlink:href="#DejaVuSans-2e" x="63.623047"/>
       <use xlink:href="#DejaVuSans-38" x="95.410156"/>
       <use xlink:href="#DejaVuSans-30" x="159.033203"/>
      </g>
     </g>
    </g>
    <g id="xtick_3">
     <g id="line2d_5">
      <path d="M 373.466199 504 
L 373.466199 69.12 
" clip-path="url(#p158598c79b)" style="fill: none; stroke: #d3d3d3; stroke-width: 0.8; stroke-linecap: square"/>
     </g>
     <g id="line2d_6">
      <g>
       <use xlink:href="#mc430da2ddb" x="373.466199" y="504" style="stroke: #000000; stroke-width: 0.8"/>
      </g>
     </g>
     <g id="text_3">
      <!-- 0.85 -->
      <g transform="translate(362.333386 518.598438)scale(0.1 -0.1)">
       <use xlink:href="#DejaVuSans-30"/>
       <use xlink:href="#DejaVuSans-2e" x="63.623047"/>
       <use xlink:href="#DejaVuSans-38" x="95.410156"/>
       <use xlink:href="#DejaVuSans-35" x="159.033203"/>
      </g>
     </g>
    </g>
    <g id="xtick_4">
     <g id="line2d_7">
      <path d="M 490.981116 504 
L 490.981116 69.12 
" clip-path="url(#p158598c79b)" style="fill: none; stroke: #d3d3d3; stroke-width: 0.8; stroke-linecap: square"/>
     </g>
     <g id="line2d_8">
      <g>
       <use xlink:href="#mc430da2ddb" x="490.981116" y="504" style="stroke: #000000; stroke-width: 0.8"/>
      </g>
     </g>
     <g id="text_4">
      <!-- 0.90 -->
      <g transform="translate(479.848304 518.598438)scale(0.1 -0.1)">
       <defs>
        <path id="DejaVuSans-39" d="M 703 97 
L 703 672 
Q 941 559 1184 500 
Q 1428 441 1663 441 
Q 2288 441 2617 861 
Q 2947 1281 2994 2138 
Q 2813 1869 2534 1725 
Q 2256 1581 1919 1581 
Q 1219 1581 811 2004 
Q 403 2428 403 3163 
Q 403 3881 828 4315 
Q 1253 4750 1959 4750 
Q 2769 4750 3195 4129 
Q 3622 3509 3622 2328 
Q 3622 1225 3098 567 
Q 2575 -91 1691 -91 
Q 1453 -91 1209 -44 
Q 966 3 703 97 
z
M 1959 2075 
Q 2384 2075 2632 2365 
Q 2881 2656 2881 3163 
Q 2881 3666 2632 3958 
Q 2384 4250 1959 4250 
Q 1534 4250 1286 3958 
Q 1038 3666 1038 3163 
Q 1038 2656 1286 2365 
Q 1534 2075 1959 2075 
z
" transform="scale(0.015625)"/>
       </defs>
       <use xlink:href="#DejaVuSans-30"/>
       <use xlink:href="#DejaVuSans-2e" x="63.623047"/>
       <use xlink:href="#DejaVuSans-39" x="95.410156"/>
       <use xlink:href="#DejaVuSans-30" x="159.033203"/>
      </g>
     </g>
    </g>
    <g id="xtick_5">
     <g id="line2d_9">
      <path d="M 608.496034 504 
L 608.496034 69.12 
" clip-path="url(#p158598c79b)" style="fill: none; stroke: #d3d3d3; stroke-width: 0.8; stroke-linecap: square"/>
     </g>
     <g id="line2d_10">
      <g>
       <use xlink:href="#mc430da2ddb" x="608.496034" y="504" style="stroke: #000000; stroke-width: 0.8"/>
      </g>
     </g>
     <g id="text_5">
      <!-- 0.95 -->
      <g transform="translate(597.363221 518.598438)scale(0.1 -0.1)">
       <use xlink:href="#DejaVuSans-30"/>
       <use xlink:href="#DejaVuSans-2e" x="63.623047"/>
       <use xlink:href="#DejaVuSans-39" x="95.410156"/>
       <use xlink:href="#DejaVuSans-35" x="159.033203"/>
      </g>
     </g>
    </g>
    <g id="xtick_6">
     <g id="line2d_11">
      <path d="M 726.010951 504 
L 726.010951 69.12 
" clip-path="url(#p158598c79b)" style="fill: none; stroke: #d3d3d3; stroke-width: 0.8; stroke-linecap: square"/>
     </g>
     <g id="line2d_12">
      <g>
       <use xlink:href="#mc430da2ddb" x="726.010951" y="504" style="stroke: #000000; stroke-width: 0.8"/>
      </g>
     </g>
     <g id="text_6">
      <!-- 1.00 -->
      <g transform="translate(714.878139 518.598438)scale(0.1 -0.1)">
       <defs>
        <path id="DejaVuSans-31" d="M 794 531 
L 1825 531 
L 1825 4091 
L 703 3866 
L 703 4441 
L 1819 4666 
L 2450 4666 
L 2450 531 
L 3481 531 
L 3481 0 
L 794 0 
L 794 531 
z
" transform="scale(0.015625)"/>
       </defs>
       <use xlink:href="#DejaVuSans-31"/>
       <use xlink:href="#DejaVuSans-2e" x="63.623047"/>
       <use xlink:href="#DejaVuSans-30" x="95.410156"/>
       <use xlink:href="#DejaVuSans-30" x="159.033203"/>
      </g>
     </g>
    </g>
   </g>
   <g id="matplotlib.axis_2">
    <g id="ytick_1">
     <g id="line2d_13">
      <defs>
       <path id="mac9e2e1adb" d="M 0 0 
L -3.5 0 
" style="stroke: #000000; stroke-width: 0.8"/>
      </defs>
      <g>
       <use xlink:href="#mac9e2e1adb" x="108" y="504" style="stroke: #000000; stroke-width: 0.8"/>
      </g>
     </g>
     <g id="text_7">
      <!-- 0 -->
      <g transform="translate(94.6375 507.799219)scale(0.1 -0.1)">
       <use xlink:href="#DejaVuSans-30"/>
      </g>
     </g>
    </g>
    <g id="ytick_2">
     <g id="line2d_14">
      <g>
       <use xlink:href="#mac9e2e1adb" x="108" y="439.713221" style="stroke: #000000; stroke-width: 0.8"/>
      </g>
     </g>
     <g id="text_8">
      <!-- 100000 -->
      <g transform="translate(62.825 443.51244)scale(0.1 -0.1)">
       <use xlink:href="#DejaVuSans-31"/>
       <use xlink:href="#DejaVuSans-30" x="63.623047"/>
       <use xlink:href="#DejaVuSans-30" x="127.246094"/>
       <use xlink:href="#DejaVuSans-30" x="190.869141"/>
       <use xlink:href="#DejaVuSans-30" x="254.492188"/>
       <use xlink:href="#DejaVuSans-30" x="318.115234"/>
      </g>
     </g>
    </g>
    <g id="ytick_3">
     <g id="line2d_15">
      <g>
       <use xlink:href="#mac9e2e1adb" x="108" y="375.426443" style="stroke: #000000; stroke-width: 0.8"/>
      </g>
     </g>
     <g id="text_9">
      <!-- 200000 -->
      <g transform="translate(62.825 379.225661)scale(0.1 -0.1)">
       <defs>
        <path id="DejaVuSans-32" d="M 1228 531 
L 3431 531 
L 3431 0 
L 469 0 
L 469 531 
Q 828 903 1448 1529 
Q 2069 2156 2228 2338 
Q 2531 2678 2651 2914 
Q 2772 3150 2772 3378 
Q 2772 3750 2511 3984 
Q 2250 4219 1831 4219 
Q 1534 4219 1204 4116 
Q 875 4013 500 3803 
L 500 4441 
Q 881 4594 1212 4672 
Q 1544 4750 1819 4750 
Q 2544 4750 2975 4387 
Q 3406 4025 3406 3419 
Q 3406 3131 3298 2873 
Q 3191 2616 2906 2266 
Q 2828 2175 2409 1742 
Q 1991 1309 1228 531 
z
" transform="scale(0.015625)"/>
       </defs>
       <use xlink:href="#DejaVuSans-32"/>
       <use xlink:href="#DejaVuSans-30" x="63.623047"/>
       <use xlink:href="#DejaVuSans-30" x="127.246094"/>
       <use xlink:href="#DejaVuSans-30" x="190.869141"/>
       <use xlink:href="#DejaVuSans-30" x="254.492188"/>
       <use xlink:href="#DejaVuSans-30" x="318.115234"/>
      </g>
     </g>
    </g>
    <g id="ytick_4">
     <g id="line2d_16">
      <g>
       <use xlink:href="#mac9e2e1adb" x="108" y="311.139664" style="stroke: #000000; stroke-width: 0.8"/>
      </g>
     </g>
     <g id="text_10">
      <!-- 300000 -->
      <g transform="translate(62.825 314.938883)scale(0.1 -0.1)">
       <defs>
        <path id="DejaVuSans-33" d="M 2597 2516 
Q 3050 2419 3304 2112 
Q 3559 1806 3559 1356 
Q 3559 666 3084 287 
Q 2609 -91 1734 -91 
Q 1441 -91 1130 -33 
Q 819 25 488 141 
L 488 750 
Q 750 597 1062 519 
Q 1375 441 1716 441 
Q 2309 441 2620 675 
Q 2931 909 2931 1356 
Q 2931 1769 2642 2001 
Q 2353 2234 1838 2234 
L 1294 2234 
L 1294 2753 
L 1863 2753 
Q 2328 2753 2575 2939 
Q 2822 3125 2822 3475 
Q 2822 3834 2567 4026 
Q 2313 4219 1838 4219 
Q 1578 4219 1281 4162 
Q 984 4106 628 3988 
L 628 4550 
Q 988 4650 1302 4700 
Q 1616 4750 1894 4750 
Q 2613 4750 3031 4423 
Q 3450 4097 3450 3541 
Q 3450 3153 3228 2886 
Q 3006 2619 2597 2516 
z
" transform="scale(0.015625)"/>
       </defs>
       <use xlink:href="#DejaVuSans-33"/>
       <use xlink:href="#DejaVuSans-30" x="63.623047"/>
       <use xlink:href="#DejaVuSans-30" x="127.246094"/>
       <use xlink:href="#DejaVuSans-30" x="190.869141"/>
       <use xlink:href="#DejaVuSans-30" x="254.492188"/>
       <use xlink:href="#DejaVuSans-30" x="318.115234"/>
      </g>
     </g>
    </g>
    <g id="ytick_5">
     <g id="line2d_17">
      <g>
       <use xlink:href="#mac9e2e1adb" x="108" y="246.852885" style="stroke: #000000; stroke-width: 0.8"/>
      </g>
     </g>
     <g id="text_11">
      <!-- 400000 -->
      <g transform="translate(62.825 250.652104)scale(0.1 -0.1)">
       <defs>
        <path id="DejaVuSans-34" d="M 2419 4116 
L 825 1625 
L 2419 1625 
L 2419 4116 
z
M 2253 4666 
L 3047 4666 
L 3047 1625 
L 3713 1625 
L 3713 1100 
L 3047 1100 
L 3047 0 
L 2419 0 
L 2419 1100 
L 313 1100 
L 313 1709 
L 2253 4666 
z
" transform="scale(0.015625)"/>
       </defs>
       <use xlink:href="#DejaVuSans-34"/>
       <use xlink:href="#DejaVuSans-30" x="63.623047"/>
       <use xlink:href="#DejaVuSans-30" x="127.246094"/>
       <use xlink:href="#DejaVuSans-30" x="190.869141"/>
       <use xlink:href="#DejaVuSans-30" x="254.492188"/>
       <use xlink:href="#DejaVuSans-30" x="318.115234"/>
      </g>
     </g>
    </g>
    <g id="ytick_6">
     <g id="line2d_18">
      <g>
       <use xlink:href="#mac9e2e1adb" x="108" y="182.566107" style="stroke: #000000; stroke-width: 0.8"/>
      </g>
     </g>
     <g id="text_12">
      <!-- 500000 -->
      <g transform="translate(62.825 186.365326)scale(0.1 -0.1)">
       <use xlink:href="#DejaVuSans-35"/>
       <use xlink:href="#DejaVuSans-30" x="63.623047"/>
       <use xlink:href="#DejaVuSans-30" x="127.246094"/>
       <use xlink:href="#DejaVuSans-30" x="190.869141"/>
       <use xlink:href="#DejaVuSans-30" x="254.492188"/>
       <use xlink:href="#DejaVuSans-30" x="318.115234"/>
      </g>
     </g>
    </g>
    <g id="ytick_7">
     <g id="line2d_19">
      <g>
       <use xlink:href="#mac9e2e1adb" x="108" y="118.279328" style="stroke: #000000; stroke-width: 0.8"/>
      </g>
     </g>
     <g id="text_13">
      <!-- 600000 -->
      <g transform="translate(62.825 122.078547)scale(0.1 -0.1)">
       <defs>
        <path id="DejaVuSans-36" d="M 2113 2584 
Q 1688 2584 1439 2293 
Q 1191 2003 1191 1497 
Q 1191 994 1439 701 
Q 1688 409 2113 409 
Q 2538 409 2786 701 
Q 3034 994 3034 1497 
Q 3034 2003 2786 2293 
Q 2538 2584 2113 2584 
z
M 3366 4563 
L 3366 3988 
Q 3128 4100 2886 4159 
Q 2644 4219 2406 4219 
Q 1781 4219 1451 3797 
Q 1122 3375 1075 2522 
Q 1259 2794 1537 2939 
Q 1816 3084 2150 3084 
Q 2853 3084 3261 2657 
Q 3669 2231 3669 1497 
Q 3669 778 3244 343 
Q 2819 -91 2113 -91 
Q 1303 -91 875 529 
Q 447 1150 447 2328 
Q 447 3434 972 4092 
Q 1497 4750 2381 4750 
Q 2619 4750 2861 4703 
Q 3103 4656 3366 4563 
z
" transform="scale(0.015625)"/>
       </defs>
       <use xlink:href="#DejaVuSans-36"/>
       <use xlink:href="#DejaVuSans-30" x="63.623047"/>
       <use xlink:href="#DejaVuSans-30" x="127.246094"/>
       <use xlink:href="#DejaVuSans-30" x="190.869141"/>
       <use xlink:href="#DejaVuSans-30" x="254.492188"/>
       <use xlink:href="#DejaVuSans-30" x="318.115234"/>
      </g>
     </g>
    </g>
   </g>
   <g id="line2d_20">
    <path d="M 638.216551 504 
L 638.216551 69.12 
" clip-path="url(#p158598c79b)" style="fill: none; stroke: #ff7f50; stroke-width: 1.5; stroke-linecap: square"/>
   </g>
   <g id="patch_262">
    <path d="M 108 504 
L 108 69.12 
" style="fill: none; stroke: #000000; stroke-width: 0.8; stroke-linejoin: miter; stroke-linecap: square"/>
   </g>
   <g id="patch_263">
    <path d="M 777.6 504 
L 777.6 69.12 
" style="fill: none; stroke: #000000; stroke-width: 0.8; stroke-linejoin: miter; stroke-linecap: square"/>
   </g>
   <g id="patch_264">
    <path d="M 108 504 
L 777.6 504 
" style="fill: none; stroke: #000000; stroke-width: 0.8; stroke-linejoin: miter; stroke-linecap: square"/>
   </g>
   <g id="patch_265">
    <path d="M 108 69.12 
L 777.6 69.12 
" style="fill: none; stroke: #000000; stroke-width: 0.8; stroke-linejoin: miter; stroke-linecap: square"/>
   </g>
   <g id="text_14">
    <!-- Histogram of cosine similarities between all sentence pairs -->
    <g transform="translate(265.509375 63.12)scale(0.12 -0.12)">
     <defs>
      <path id="DejaVuSans-48" d="M 628 4666 
L 1259 4666 
L 1259 2753 
L 3553 2753 
L 3553 4666 
L 4184 4666 
L 4184 0 
L 3553 0 
L 3553 2222 
L 1259 2222 
L 1259 0 
L 628 0 
L 628 4666 
z
" transform="scale(0.015625)"/>
      <path id="DejaVuSans-69" d="M 603 3500 
L 1178 3500 
L 1178 0 
L 603 0 
L 603 3500 
z
M 603 4863 
L 1178 4863 
L 1178 4134 
L 603 4134 
L 603 4863 
z
" transform="scale(0.015625)"/>
      <path id="DejaVuSans-73" d="M 2834 3397 
L 2834 2853 
Q 2591 2978 2328 3040 
Q 2066 3103 1784 3103 
Q 1356 3103 1142 2972 
Q 928 2841 928 2578 
Q 928 2378 1081 2264 
Q 1234 2150 1697 2047 
L 1894 2003 
Q 2506 1872 2764 1633 
Q 3022 1394 3022 966 
Q 3022 478 2636 193 
Q 2250 -91 1575 -91 
Q 1294 -91 989 -36 
Q 684 19 347 128 
L 347 722 
Q 666 556 975 473 
Q 1284 391 1588 391 
Q 1994 391 2212 530 
Q 2431 669 2431 922 
Q 2431 1156 2273 1281 
Q 2116 1406 1581 1522 
L 1381 1569 
Q 847 1681 609 1914 
Q 372 2147 372 2553 
Q 372 3047 722 3315 
Q 1072 3584 1716 3584 
Q 2034 3584 2315 3537 
Q 2597 3491 2834 3397 
z
" transform="scale(0.015625)"/>
      <path id="DejaVuSans-74" d="M 1172 4494 
L 1172 3500 
L 2356 3500 
L 2356 3053 
L 1172 3053 
L 1172 1153 
Q 1172 725 1289 603 
Q 1406 481 1766 481 
L 2356 481 
L 2356 0 
L 1766 0 
Q 1100 0 847 248 
Q 594 497 594 1153 
L 594 3053 
L 172 3053 
L 172 3500 
L 594 3500 
L 594 4494 
L 1172 4494 
z
" transform="scale(0.015625)"/>
      <path id="DejaVuSans-6f" d="M 1959 3097 
Q 1497 3097 1228 2736 
Q 959 2375 959 1747 
Q 959 1119 1226 758 
Q 1494 397 1959 397 
Q 2419 397 2687 759 
Q 2956 1122 2956 1747 
Q 2956 2369 2687 2733 
Q 2419 3097 1959 3097 
z
M 1959 3584 
Q 2709 3584 3137 3096 
Q 3566 2609 3566 1747 
Q 3566 888 3137 398 
Q 2709 -91 1959 -91 
Q 1206 -91 779 398 
Q 353 888 353 1747 
Q 353 2609 779 3096 
Q 1206 3584 1959 3584 
z
" transform="scale(0.015625)"/>
      <path id="DejaVuSans-67" d="M 2906 1791 
Q 2906 2416 2648 2759 
Q 2391 3103 1925 3103 
Q 1463 3103 1205 2759 
Q 947 2416 947 1791 
Q 947 1169 1205 825 
Q 1463 481 1925 481 
Q 2391 481 2648 825 
Q 2906 1169 2906 1791 
z
M 3481 434 
Q 3481 -459 3084 -895 
Q 2688 -1331 1869 -1331 
Q 1566 -1331 1297 -1286 
Q 1028 -1241 775 -1147 
L 775 -588 
Q 1028 -725 1275 -790 
Q 1522 -856 1778 -856 
Q 2344 -856 2625 -561 
Q 2906 -266 2906 331 
L 2906 616 
Q 2728 306 2450 153 
Q 2172 0 1784 0 
Q 1141 0 747 490 
Q 353 981 353 1791 
Q 353 2603 747 3093 
Q 1141 3584 1784 3584 
Q 2172 3584 2450 3431 
Q 2728 3278 2906 2969 
L 2906 3500 
L 3481 3500 
L 3481 434 
z
" transform="scale(0.015625)"/>
      <path id="DejaVuSans-72" d="M 2631 2963 
Q 2534 3019 2420 3045 
Q 2306 3072 2169 3072 
Q 1681 3072 1420 2755 
Q 1159 2438 1159 1844 
L 1159 0 
L 581 0 
L 581 3500 
L 1159 3500 
L 1159 2956 
Q 1341 3275 1631 3429 
Q 1922 3584 2338 3584 
Q 2397 3584 2469 3576 
Q 2541 3569 2628 3553 
L 2631 2963 
z
" transform="scale(0.015625)"/>
      <path id="DejaVuSans-61" d="M 2194 1759 
Q 1497 1759 1228 1600 
Q 959 1441 959 1056 
Q 959 750 1161 570 
Q 1363 391 1709 391 
Q 2188 391 2477 730 
Q 2766 1069 2766 1631 
L 2766 1759 
L 2194 1759 
z
M 3341 1997 
L 3341 0 
L 2766 0 
L 2766 531 
Q 2569 213 2275 61 
Q 1981 -91 1556 -91 
Q 1019 -91 701 211 
Q 384 513 384 1019 
Q 384 1609 779 1909 
Q 1175 2209 1959 2209 
L 2766 2209 
L 2766 2266 
Q 2766 2663 2505 2880 
Q 2244 3097 1772 3097 
Q 1472 3097 1187 3025 
Q 903 2953 641 2809 
L 641 3341 
Q 956 3463 1253 3523 
Q 1550 3584 1831 3584 
Q 2591 3584 2966 3190 
Q 3341 2797 3341 1997 
z
" transform="scale(0.015625)"/>
      <path id="DejaVuSans-6d" d="M 3328 2828 
Q 3544 3216 3844 3400 
Q 4144 3584 4550 3584 
Q 5097 3584 5394 3201 
Q 5691 2819 5691 2113 
L 5691 0 
L 5113 0 
L 5113 2094 
Q 5113 2597 4934 2840 
Q 4756 3084 4391 3084 
Q 3944 3084 3684 2787 
Q 3425 2491 3425 1978 
L 3425 0 
L 2847 0 
L 2847 2094 
Q 2847 2600 2669 2842 
Q 2491 3084 2119 3084 
Q 1678 3084 1418 2786 
Q 1159 2488 1159 1978 
L 1159 0 
L 581 0 
L 581 3500 
L 1159 3500 
L 1159 2956 
Q 1356 3278 1631 3431 
Q 1906 3584 2284 3584 
Q 2666 3584 2933 3390 
Q 3200 3197 3328 2828 
z
" transform="scale(0.015625)"/>
      <path id="DejaVuSans-20" transform="scale(0.015625)"/>
      <path id="DejaVuSans-66" d="M 2375 4863 
L 2375 4384 
L 1825 4384 
Q 1516 4384 1395 4259 
Q 1275 4134 1275 3809 
L 1275 3500 
L 2222 3500 
L 2222 3053 
L 1275 3053 
L 1275 0 
L 697 0 
L 697 3053 
L 147 3053 
L 147 3500 
L 697 3500 
L 697 3744 
Q 697 4328 969 4595 
Q 1241 4863 1831 4863 
L 2375 4863 
z
" transform="scale(0.015625)"/>
      <path id="DejaVuSans-63" d="M 3122 3366 
L 3122 2828 
Q 2878 2963 2633 3030 
Q 2388 3097 2138 3097 
Q 1578 3097 1268 2742 
Q 959 2388 959 1747 
Q 959 1106 1268 751 
Q 1578 397 2138 397 
Q 2388 397 2633 464 
Q 2878 531 3122 666 
L 3122 134 
Q 2881 22 2623 -34 
Q 2366 -91 2075 -91 
Q 1284 -91 818 406 
Q 353 903 353 1747 
Q 353 2603 823 3093 
Q 1294 3584 2113 3584 
Q 2378 3584 2631 3529 
Q 2884 3475 3122 3366 
z
" transform="scale(0.015625)"/>
      <path id="DejaVuSans-6e" d="M 3513 2113 
L 3513 0 
L 2938 0 
L 2938 2094 
Q 2938 2591 2744 2837 
Q 2550 3084 2163 3084 
Q 1697 3084 1428 2787 
Q 1159 2491 1159 1978 
L 1159 0 
L 581 0 
L 581 3500 
L 1159 3500 
L 1159 2956 
Q 1366 3272 1645 3428 
Q 1925 3584 2291 3584 
Q 2894 3584 3203 3211 
Q 3513 2838 3513 2113 
z
" transform="scale(0.015625)"/>
      <path id="DejaVuSans-65" d="M 3597 1894 
L 3597 1613 
L 953 1613 
Q 991 1019 1311 708 
Q 1631 397 2203 397 
Q 2534 397 2845 478 
Q 3156 559 3463 722 
L 3463 178 
Q 3153 47 2828 -22 
Q 2503 -91 2169 -91 
Q 1331 -91 842 396 
Q 353 884 353 1716 
Q 353 2575 817 3079 
Q 1281 3584 2069 3584 
Q 2775 3584 3186 3129 
Q 3597 2675 3597 1894 
z
M 3022 2063 
Q 3016 2534 2758 2815 
Q 2500 3097 2075 3097 
Q 1594 3097 1305 2825 
Q 1016 2553 972 2059 
L 3022 2063 
z
" transform="scale(0.015625)"/>
      <path id="DejaVuSans-6c" d="M 603 4863 
L 1178 4863 
L 1178 0 
L 603 0 
L 603 4863 
z
" transform="scale(0.015625)"/>
      <path id="DejaVuSans-62" d="M 3116 1747 
Q 3116 2381 2855 2742 
Q 2594 3103 2138 3103 
Q 1681 3103 1420 2742 
Q 1159 2381 1159 1747 
Q 1159 1113 1420 752 
Q 1681 391 2138 391 
Q 2594 391 2855 752 
Q 3116 1113 3116 1747 
z
M 1159 2969 
Q 1341 3281 1617 3432 
Q 1894 3584 2278 3584 
Q 2916 3584 3314 3078 
Q 3713 2572 3713 1747 
Q 3713 922 3314 415 
Q 2916 -91 2278 -91 
Q 1894 -91 1617 61 
Q 1341 213 1159 525 
L 1159 0 
L 581 0 
L 581 4863 
L 1159 4863 
L 1159 2969 
z
" transform="scale(0.015625)"/>
      <path id="DejaVuSans-77" d="M 269 3500 
L 844 3500 
L 1563 769 
L 2278 3500 
L 2956 3500 
L 3675 769 
L 4391 3500 
L 4966 3500 
L 4050 0 
L 3372 0 
L 2619 2869 
L 1863 0 
L 1184 0 
L 269 3500 
z
" transform="scale(0.015625)"/>
      <path id="DejaVuSans-70" d="M 1159 525 
L 1159 -1331 
L 581 -1331 
L 581 3500 
L 1159 3500 
L 1159 2969 
Q 1341 3281 1617 3432 
Q 1894 3584 2278 3584 
Q 2916 3584 3314 3078 
Q 3713 2572 3713 1747 
Q 3713 922 3314 415 
Q 2916 -91 2278 -91 
Q 1894 -91 1617 61 
Q 1341 213 1159 525 
z
M 3116 1747 
Q 3116 2381 2855 2742 
Q 2594 3103 2138 3103 
Q 1681 3103 1420 2742 
Q 1159 2381 1159 1747 
Q 1159 1113 1420 752 
Q 1681 391 2138 391 
Q 2594 391 2855 752 
Q 3116 1113 3116 1747 
z
" transform="scale(0.015625)"/>
     </defs>
     <use xlink:href="#DejaVuSans-48"/>
     <use xlink:href="#DejaVuSans-69" x="75.195312"/>
     <use xlink:href="#DejaVuSans-73" x="102.978516"/>
     <use xlink:href="#DejaVuSans-74" x="155.078125"/>
     <use xlink:href="#DejaVuSans-6f" x="194.287109"/>
     <use xlink:href="#DejaVuSans-67" x="255.46875"/>
     <use xlink:href="#DejaVuSans-72" x="318.945312"/>
     <use xlink:href="#DejaVuSans-61" x="360.058594"/>
     <use xlink:href="#DejaVuSans-6d" x="421.337891"/>
     <use xlink:href="#DejaVuSans-20" x="518.75"/>
     <use xlink:href="#DejaVuSans-6f" x="550.537109"/>
     <use xlink:href="#DejaVuSans-66" x="611.71875"/>
     <use xlink:href="#DejaVuSans-20" x="646.923828"/>
     <use xlink:href="#DejaVuSans-63" x="678.710938"/>
     <use xlink:href="#DejaVuSans-6f" x="733.691406"/>
     <use xlink:href="#DejaVuSans-73" x="794.873047"/>
     <use xlink:href="#DejaVuSans-69" x="846.972656"/>
     <use xlink:href="#DejaVuSans-6e" x="874.755859"/>
     <use xlink:href="#DejaVuSans-65" x="938.134766"/>
     <use xlink:href="#DejaVuSans-20" x="999.658203"/>
     <use xlink:href="#DejaVuSans-73" x="1031.445312"/>
     <use xlink:href="#DejaVuSans-69" x="1083.544922"/>
     <use xlink:href="#DejaVuSans-6d" x="1111.328125"/>
     <use xlink:href="#DejaVuSans-69" x="1208.740234"/>
     <use xlink:href="#DejaVuSans-6c" x="1236.523438"/>
     <use xlink:href="#DejaVuSans-61" x="1264.306641"/>
     <use xlink:href="#DejaVuSans-72" x="1325.585938"/>
     <use xlink:href="#DejaVuSans-69" x="1366.699219"/>
     <use xlink:href="#DejaVuSans-74" x="1394.482422"/>
     <use xlink:href="#DejaVuSans-69" x="1433.691406"/>
     <use xlink:href="#DejaVuSans-65" x="1461.474609"/>
     <use xlink:href="#DejaVuSans-73" x="1522.998047"/>
     <use xlink:href="#DejaVuSans-20" x="1575.097656"/>
     <use xlink:href="#DejaVuSans-62" x="1606.884766"/>
     <use xlink:href="#DejaVuSans-65" x="1670.361328"/>
     <use xlink:href="#DejaVuSans-74" x="1731.884766"/>
     <use xlink:href="#DejaVuSans-77" x="1771.09375"/>
     <use xlink:href="#DejaVuSans-65" x="1852.880859"/>
     <use xlink:href="#DejaVuSans-65" x="1914.404297"/>
     <use xlink:href="#DejaVuSans-6e" x="1975.927734"/>
     <use xlink:href="#DejaVuSans-20" x="2039.306641"/>
     <use xlink:href="#DejaVuSans-61" x="2071.09375"/>
     <use xlink:href="#DejaVuSans-6c" x="2132.373047"/>
     <use xlink:href="#DejaVuSans-6c" x="2160.15625"/>
     <use xlink:href="#DejaVuSans-20" x="2187.939453"/>
     <use xlink:href="#DejaVuSans-73" x="2219.726562"/>
     <use xlink:href="#DejaVuSans-65" x="2271.826172"/>
     <use xlink:href="#DejaVuSans-6e" x="2333.349609"/>
     <use xlink:href="#DejaVuSans-74" x="2396.728516"/>
     <use xlink:href="#DejaVuSans-65" x="2435.9375"/>
     <use xlink:href="#DejaVuSans-6e" x="2497.460938"/>
     <use xlink:href="#DejaVuSans-63" x="2560.839844"/>
     <use xlink:href="#DejaVuSans-65" x="2615.820312"/>
     <use xlink:href="#DejaVuSans-20" x="2677.34375"/>
     <use xlink:href="#DejaVuSans-70" x="2709.130859"/>
     <use xlink:href="#DejaVuSans-61" x="2772.607422"/>
     <use xlink:href="#DejaVuSans-69" x="2833.886719"/>
     <use xlink:href="#DejaVuSans-72" x="2861.669922"/>
     <use xlink:href="#DejaVuSans-73" x="2902.783203"/>
    </g>
   </g>
  </g>
 </g>
 <defs>
  <clipPath id="p158598c79b">
   <rect x="108" y="69.12" width="669.6" height="434.88"/>
  </clipPath>
 </defs>
</svg>
